<svg width="222" height="38" viewBox="0 0 222 38" fill="none" xmlns="http://www.w3.org/2000/svg">
<path d="M24.7315 9.70514C27.1903 9.70514 29.1151 10.413 30.5059 11.8286C31.9216 13.2443 32.6294 15.3304 32.6294 18.0873V29.4498H29.9845V18.3481C29.9845 16.3115 29.4877 14.7592 28.4942 13.6913C27.5257 12.6234 26.1472 12.0894 24.359 12.0894C22.3225 12.0894 20.7206 12.7227 19.5533 13.9894C18.386 15.2311 17.8023 16.9573 17.8023 19.1676V29.4498H15.1573V18.3481C15.1573 16.3115 14.6606 14.7592 13.6671 13.6913C12.6986 12.6234 11.3077 12.0894 9.49471 12.0894C7.48299 12.0894 5.88107 12.7227 4.68894 13.9894C3.52165 15.2311 2.938 16.9573 2.938 19.1676V29.4498H0.292969V9.85415H2.82624V13.4305C3.52165 12.2384 4.49025 11.3195 5.73205 10.6737C6.97386 10.028 8.40193 9.70514 10.0163 9.70514C11.6554 9.70514 13.0711 10.0528 14.2632 10.7482C15.4801 11.4436 16.3867 12.4743 16.9827 13.8403C17.703 12.5489 18.7337 11.543 20.0749 10.8228C21.4408 10.0777 22.993 9.70514 24.7315 9.70514ZM55.905 9.85415L46.1072 31.7967C45.3125 33.6346 44.3935 34.9385 43.3504 35.7085C42.3074 36.4783 41.0531 36.8633 39.5878 36.8633C38.644 36.8633 37.7624 36.7142 36.9428 36.4162C36.1232 36.1182 35.4153 35.6712 34.8193 35.0751L36.0487 33.1006C37.0421 34.0941 38.2342 34.5908 39.625 34.5908C40.5191 34.5908 41.2767 34.3425 41.8976 33.8457C42.5433 33.349 43.1393 32.5046 43.6857 31.3124L44.5426 29.4125L35.7878 9.85415H38.5447L45.921 26.5067L53.2973 9.85415H55.905ZM79.0394 1.80729V29.4498H73.4886V27.14C72.0481 28.8786 69.9619 29.7478 67.2299 29.7478C65.3424 29.7478 63.6288 29.3256 62.0889 28.4811C60.5739 27.6367 59.3818 26.4321 58.5125 24.8675C57.6433 23.3028 57.2087 21.4898 57.2087 19.4284C57.2087 17.3671 57.6433 15.554 58.5125 13.9894C59.3818 12.4247 60.5739 11.2201 62.0889 10.3757C63.6288 9.53129 65.3424 9.10907 67.2299 9.10907C69.788 9.10907 71.7874 9.91624 73.2279 11.5306V1.80729H79.0394ZM68.2358 24.9793C69.7012 24.9793 70.9181 24.4825 71.8867 23.4892C72.8553 22.4708 73.3396 21.1173 73.3396 19.4284C73.3396 17.7396 72.8553 16.3984 71.8867 15.405C70.9181 14.3867 69.7012 13.8776 68.2358 13.8776C66.7456 13.8776 65.5162 14.3867 64.5477 15.405C63.5791 16.3984 63.0947 17.7396 63.0947 19.4284C63.0947 21.1173 63.5791 22.4708 64.5477 23.4892C65.5162 24.4825 66.7456 24.9793 68.2358 24.9793ZM104.051 19.5029C104.051 19.5774 104.014 20.099 103.939 21.0676H88.7771C89.0503 22.3094 89.696 23.2904 90.7142 24.0106C91.7325 24.7309 92.9991 25.0911 94.5142 25.0911C95.5572 25.0911 96.4762 24.942 97.271 24.644C98.0905 24.3211 98.8481 23.8244 99.5434 23.1538L102.636 26.5067C100.748 28.6674 97.9912 29.7478 94.3651 29.7478C92.105 29.7478 90.1058 29.3132 88.3673 28.4438C86.6287 27.5498 85.2876 26.3205 84.3438 24.7557C83.4 23.191 82.9282 21.4153 82.9282 19.4284C82.9282 17.4664 83.3876 15.7031 84.3065 14.1383C85.2503 12.5489 86.5293 11.3195 88.1437 10.4502C89.7829 9.55612 91.6084 9.10907 93.6201 9.10907C95.5821 9.10907 97.3578 9.53129 98.9474 10.3757C100.537 11.2201 101.779 12.4371 102.673 14.0266C103.592 15.5913 104.051 17.4167 104.051 19.5029ZM93.6573 13.5051C92.341 13.5051 91.2358 13.8776 90.3417 14.6226C89.4476 15.3677 88.9012 16.3861 88.7025 17.6775H98.5749C98.3761 16.4109 97.8297 15.405 96.9357 14.6599C96.0416 13.89 94.9488 13.5051 93.6573 13.5051ZM119.767 9.10907C121.629 9.10907 123.318 9.5437 124.834 10.413C126.374 11.2574 127.578 12.4619 128.447 14.0266C129.317 15.5665 129.752 17.3671 129.752 19.4284C129.752 21.4898 129.317 23.3028 128.447 24.8675C127.578 26.4073 126.374 27.6119 124.834 28.4811C123.318 29.3256 121.629 29.7478 119.767 29.7478C117.209 29.7478 115.197 28.9406 113.732 27.3263V36.677H107.92V9.40711H113.471V11.7168C114.912 9.97834 117.01 9.10907 119.767 9.10907ZM118.761 24.9793C120.251 24.9793 121.468 24.4825 122.412 23.4892C123.38 22.4708 123.865 21.1173 123.865 19.4284C123.865 17.7396 123.38 16.3984 122.412 15.405C121.468 14.3867 120.251 13.8776 118.761 13.8776C117.271 13.8776 116.042 14.3867 115.074 15.405C114.129 16.3984 113.658 17.7396 113.658 19.4284C113.658 21.1173 114.129 22.4708 115.074 23.4892C116.042 24.4825 117.271 24.9793 118.761 24.9793ZM143.178 29.7478C141.068 29.7478 139.167 29.3132 137.479 28.4438C135.815 27.5498 134.511 26.3205 133.568 24.7557C132.623 23.191 132.152 21.4153 132.152 19.4284C132.152 17.4416 132.623 15.6658 133.568 14.1011C134.511 12.5364 135.815 11.3195 137.479 10.4502C139.167 9.55612 141.068 9.10907 143.178 9.10907C145.289 9.10907 147.177 9.55612 148.841 10.4502C150.505 11.3195 151.809 12.5364 152.752 14.1011C153.697 15.6658 154.168 17.4416 154.168 19.4284C154.168 21.4153 153.697 23.191 152.752 24.7557C151.809 26.3205 150.505 27.5498 148.841 28.4438C147.177 29.3132 145.289 29.7478 143.178 29.7478ZM143.178 24.9793C144.669 24.9793 145.886 24.4825 146.83 23.4892C147.798 22.4708 148.283 21.1173 148.283 19.4284C148.283 17.7396 147.798 16.3984 146.83 15.405C145.886 14.3867 144.669 13.8776 143.178 13.8776C141.689 13.8776 140.459 14.3867 139.49 15.405C138.522 16.3984 138.038 17.7396 138.038 19.4284C138.038 21.1173 138.522 22.4708 139.49 23.4892C140.459 24.4825 141.689 24.9793 143.178 24.9793ZM164.796 29.7478C163.132 29.7478 161.506 29.5491 159.916 29.1518C158.326 28.7295 157.06 28.2079 156.116 27.5871L158.053 23.4146C158.947 23.9858 160.027 24.4577 161.294 24.8302C162.561 25.1779 163.803 25.3518 165.02 25.3518C167.478 25.3518 168.708 24.7434 168.708 23.5263C168.708 22.9551 168.373 22.5453 167.702 22.2969C167.032 22.0487 166.001 21.8375 164.61 21.6637C162.971 21.4153 161.618 21.1297 160.55 20.8068C159.481 20.484 158.55 19.9127 157.755 19.0931C156.985 18.2735 156.6 17.1062 156.6 15.5913C156.6 14.3246 156.96 13.2071 157.681 12.2384C158.426 11.245 159.494 10.475 160.885 9.92866C162.301 9.38227 163.965 9.10907 165.876 9.10907C167.292 9.10907 168.696 9.27051 170.087 9.59337C171.502 9.89141 172.669 10.3136 173.588 10.86L171.651 14.9952C169.887 14.0017 167.963 13.5051 165.876 13.5051C164.635 13.5051 163.703 13.6789 163.082 14.0266C162.461 14.3743 162.151 14.8213 162.151 15.3677C162.151 15.9886 162.486 16.4232 163.157 16.6716C163.827 16.92 164.896 17.1559 166.361 17.3794C168 17.6526 169.341 17.9507 170.384 18.2735C171.428 18.5716 172.334 19.1304 173.104 19.95C173.874 20.7696 174.259 21.9121 174.259 23.3774C174.259 24.6191 173.887 25.7243 173.141 26.693C172.396 27.6615 171.303 28.419 169.862 28.9654C168.448 29.487 166.758 29.7478 164.796 29.7478ZM177.844 9.40711H183.656V29.4498H177.844V9.40711ZM180.75 6.61305C179.682 6.61305 178.812 6.30261 178.142 5.68171C177.471 5.06081 177.136 4.29089 177.136 3.37196C177.136 2.45302 177.471 1.68311 178.142 1.06221C178.812 0.441309 179.682 0.130859 180.75 0.130859C181.819 0.130859 182.687 0.428892 183.358 1.02496C184.028 1.62102 184.364 2.3661 184.364 3.2602C184.364 4.2288 184.028 5.03597 183.358 5.68171C182.687 6.30261 181.819 6.61305 180.75 6.61305ZM201.976 28.4811C201.406 28.9034 200.698 29.2263 199.854 29.4498C199.034 29.6484 198.165 29.7478 197.245 29.7478C194.861 29.7478 193.011 29.1393 191.694 27.9224C190.403 26.7053 189.757 24.9172 189.757 22.5578V14.3246H186.665V9.85415H189.757V4.97388H195.569V9.85415H200.562V14.3246H195.569V22.4833C195.569 23.3276 195.781 23.9858 196.202 24.4577C196.649 24.9048 197.27 25.1283 198.065 25.1283C198.984 25.1283 199.767 24.8799 200.412 24.3832L201.976 28.4811ZM211.982 29.7478C210.318 29.7478 208.692 29.5491 207.102 29.1518C205.512 28.7295 204.246 28.2079 203.302 27.5871L205.24 23.4146C206.133 23.9858 207.214 24.4577 208.48 24.8302C209.746 25.1779 210.989 25.3518 212.205 25.3518C214.664 25.3518 215.893 24.7434 215.893 23.5263C215.893 22.9551 215.558 22.5453 214.887 22.2969C214.217 22.0487 213.186 21.8375 211.795 21.6637C210.156 21.4153 208.803 21.1297 207.735 20.8068C206.667 20.484 205.736 19.9127 204.942 19.0931C204.171 18.2735 203.786 17.1062 203.786 15.5913C203.786 14.3246 204.147 13.2071 204.867 12.2384C205.612 11.245 206.679 10.475 208.07 9.92866C209.486 9.38227 211.15 9.10907 213.063 9.10907C214.479 9.10907 215.881 9.27051 217.272 9.59337C218.688 9.89141 219.855 10.3136 220.774 10.86L218.837 14.9952C217.074 14.0017 215.149 13.5051 213.063 13.5051C211.82 13.5051 210.889 13.6789 210.269 14.0266C209.648 14.3743 209.337 14.8213 209.337 15.3677C209.337 15.9886 209.673 16.4232 210.343 16.6716C211.014 16.92 212.082 17.1559 213.546 17.3794C215.186 17.6526 216.528 17.9507 217.571 18.2735C218.613 18.5716 219.52 19.1304 220.29 19.95C221.059 20.7696 221.444 21.9121 221.444 23.3774C221.444 24.6191 221.072 25.7243 220.326 26.693C219.582 27.6615 218.489 28.419 217.049 28.9654C215.633 29.487 213.944 29.7478 211.982 29.7478Z" fill="#E1D9D9"/>
</svg>
