<svg width="205" height="38" viewBox="0 0 205 38" fill="none" xmlns="http://www.w3.org/2000/svg">
<path d="M186.401 29.93C180.307 29.93 175.555 25.6809 175.555 18.6363C175.555 11.7781 180.046 7.28679 186.401 7.28679C193.11 7.28679 197.545 12.1881 197.545 18.6922C197.616 20.1789 197.377 21.664 196.844 23.0533C196.31 24.4426 195.493 25.7058 194.445 26.7625C193.397 27.8193 192.141 28.6466 190.756 29.1919C189.371 29.7372 187.888 29.9885 186.401 29.93ZM146.668 36.2291H167.709V29.5759H154.104V1.0436H146.65V36.2291H146.668ZM127.268 23.2954C126.188 23.3405 125.11 23.1605 124.104 22.7666C123.098 22.3728 122.184 21.7739 121.422 21.0079C120.659 20.242 120.064 19.3257 119.675 18.3174C119.286 17.3092 119.111 16.2309 119.161 15.1513C119.122 14.0746 119.305 13.0013 119.698 11.9981C120.091 10.9949 120.686 10.0832 121.447 9.31959C122.207 8.55595 123.116 7.95666 124.117 7.55889C125.118 7.16111 126.191 6.97335 127.268 7.00724C132.02 7.00724 135.505 10.2127 135.505 15.1513C135.505 20.1086 132.02 23.2954 127.268 23.2954ZM111.725 36.2477H119.18V23.6495C120.104 25.569 121.563 27.1808 123.381 28.2915C125.2 29.4022 127.3 29.9647 129.43 29.9113C136.754 29.9113 142.904 23.8545 142.904 15.1513C142.904 6.44815 136.754 0.335423 129.411 0.335423C124.92 0.335423 121.211 2.57179 119.161 6.59724V1.00633H111.706V36.2291L111.725 36.2477ZM89.7713 30.0604C83.5654 30.0604 78.72 25.5877 78.72 18.7481C78.72 11.8527 83.5654 7.1936 89.7713 7.1936C95.9773 7.1936 100.711 11.8527 100.711 18.7481C100.711 25.6063 95.9773 30.0604 89.7713 30.0604ZM89.8273 36.9559C100.469 36.9559 108.221 29.5572 108.221 18.7481C108.221 7.9577 100.469 0.354059 89.8273 0.354059C79.1673 0.354059 71.2654 7.9577 71.2654 18.7481C71.2654 29.5572 79.1673 36.9559 89.8273 36.9559ZM49.8709 30.0604C43.6836 30.0604 38.8754 25.5877 38.8754 18.7481C38.8754 11.8527 43.6836 7.1936 49.8709 7.1936C56.0768 7.1936 60.8664 11.8527 60.8664 18.7481C60.8664 25.6063 56.0768 30.0604 49.8709 30.0604ZM49.9268 36.9559C60.5682 36.9559 68.3209 29.5572 68.3209 18.7481C68.3209 7.9577 60.5682 0.354059 49.9268 0.354059C39.2854 0.354059 31.3836 7.9577 31.3836 18.7481C31.3836 29.5572 39.2854 36.9559 49.9268 36.9559ZM0.894531 36.2291H29.7809V29.5759H8.88953C9.0759 24.3391 12.8404 22.9413 17.0895 21.4877C22.9227 19.4936 29.6877 16.9404 29.6877 3.68997V1.0436H0.987713V7.64088H21.7859C21.5995 12.5795 17.9282 13.8841 13.7723 15.2818C7.9018 17.2945 0.913168 19.8291 0.913168 33.5454V36.2291H0.894531ZM185.059 36.9372C187.558 37.0183 190.032 36.4305 192.228 35.2346C194.423 34.0387 196.259 32.2782 197.545 30.135V36.2291H205V1.0436H197.545V7.08179C196.255 4.94627 194.416 3.19472 192.221 2.00854C190.025 0.822371 187.553 0.244719 185.059 0.335423C175.741 0.335423 168.063 7.97633 168.063 18.6363C168.063 29.2963 175.76 36.9372 185.059 36.9372Z" fill="#D9D9D9"/>
</svg>
