<svg width="217" height="41" viewBox="0 0 217 41" fill="none" xmlns="http://www.w3.org/2000/svg">
<g clip-path="url(#clip0_1655_10949)">
<path d="M13.3921 14.2657C14.7608 14.2657 15.8702 13.1563 15.8702 11.7877C15.8702 10.419 14.7608 9.30957 13.3921 9.30957C12.0235 9.30957 10.9141 10.419 10.9141 11.7877C10.9141 13.1563 12.0235 14.2657 13.3921 14.2657Z" fill="black"/>
<path d="M6.82965 18.2179C8.19826 18.2179 9.30773 17.1084 9.30773 15.7398C9.30773 14.3712 8.19826 13.2617 6.82965 13.2617C5.46104 13.2617 4.35156 14.3712 4.35156 15.7398C4.35156 17.1084 5.46104 18.2179 6.82965 18.2179Z" fill="black"/>
<path d="M2.47809 24.714C3.8467 24.714 4.95617 23.6045 4.95617 22.2359C4.95617 20.8673 3.8467 19.7578 2.47809 19.7578C1.10948 19.7578 0 20.8673 0 22.2359C0 23.6045 1.10948 24.714 2.47809 24.714Z" fill="black"/>
<path d="M21.232 22.9728C22.6006 22.9728 23.7101 21.8633 23.7101 20.4947C23.7101 19.1261 22.6006 18.0166 21.232 18.0166C19.8634 18.0166 18.7539 19.1261 18.7539 20.4947C18.7539 21.8633 19.8634 22.9728 21.232 22.9728Z" fill="black"/>
<path d="M29.0015 14.2657C30.3701 14.2657 31.4796 13.1563 31.4796 11.7877C31.4796 10.419 30.3701 9.30957 29.0015 9.30957C27.6329 9.30957 26.5234 10.419 26.5234 11.7877C26.5234 13.1563 27.6329 14.2657 29.0015 14.2657Z" fill="black"/>
<path d="M35.6304 18.2179C36.999 18.2179 38.1085 17.1084 38.1085 15.7398C38.1085 14.3712 36.999 13.2617 35.6304 13.2617C34.2618 13.2617 33.1523 14.3712 33.1523 15.7398C33.1523 17.1084 34.2618 18.2179 35.6304 18.2179Z" fill="black"/>
<path d="M39.9859 24.714C41.3545 24.714 42.464 23.6045 42.464 22.2359C42.464 20.8673 41.3545 19.7578 39.9859 19.7578C38.6173 19.7578 37.5078 20.8673 37.5078 22.2359C37.5078 23.6045 38.6173 24.714 39.9859 24.714Z" fill="black"/>
<path d="M21.232 22.9728C22.6006 22.9728 23.7101 21.8633 23.7101 20.4947C23.7101 19.1261 22.6006 18.0166 21.232 18.0166C19.8634 18.0166 18.7539 19.1261 18.7539 20.4947C18.7539 21.8633 19.8634 22.9728 21.232 22.9728Z" fill="black"/>
<path d="M22.1688 6.56358C22.3028 6.4966 22.3698 6.36265 22.5037 6.2287L25.5846 7.83611V3.28179L22.5037 4.28642C22.4367 4.15247 22.3028 4.08549 22.1688 3.95154L23.4414 0H18.954L20.2265 3.95154C20.0926 4.01852 20.0256 4.15247 19.8917 4.28642L16.8108 3.28179V7.83611L19.8917 6.2287C19.9586 6.36265 20.0926 6.42963 20.2265 6.56358L18.4852 11.9216C17.8824 13.7969 19.2889 15.7392 21.2312 15.7392C23.2404 15.7392 24.6469 13.7969 23.9772 11.9216L22.2358 6.56358H22.1688ZM24.7809 25.3836C24.7809 25.3836 22.5037 27.9287 22.0349 29.4691C23.5083 29.4691 24.8478 29.1343 26.3213 27.5938L25.8525 33.2867C24.513 31.4114 22.9056 30.5407 22.0349 30.7417C22.1019 32.8179 22.3698 35.229 25.9194 35.5639C28.3975 35.7648 30.4068 34.5593 30.6077 33.0188C30.8756 31.2775 29.2682 30.1389 28.1296 31.9472C27.192 28.9333 29.737 27.8617 31.4114 29.804C30.1389 26.7901 30.2059 24.6469 33.0188 22.5037C35.0281 25.1827 34.7602 27.3929 32.2151 29.938C33.8225 29.0673 36.3676 29.938 34.8941 33.0188C34.0904 31.1435 32.416 31.5454 32.0812 33.1528C31.8802 34.2914 32.55 35.6309 34.0904 35.9657C35.363 36.1667 37.2383 35.363 38.7787 32.0142C37.908 32.0142 37.1713 32.483 36.1667 33.1528L37.7741 27.7948C38.1759 29.3352 38.7117 30.2728 39.2475 30.8086C39.6494 29.737 39.5824 28.9333 39.2475 27.259L42.5963 28.4645C40.8549 30.8756 39.1136 34.2914 37.7071 40.1852C32.7509 39.4485 27.192 39.0466 21.2981 39.0466C15.4043 39.0466 9.84537 39.4485 4.8892 40.1852C3.48272 34.2244 1.74136 30.8756 0 28.4645L3.34877 27.259C3.01389 28.9333 2.94691 29.737 3.34877 30.8086C3.88457 30.2728 4.42037 29.2682 4.82222 27.7948L6.42963 33.1528C5.425 32.483 4.68827 32.0142 3.81759 32.0142C5.35802 35.363 7.30031 36.1667 8.50586 35.9657C10.0463 35.6978 10.716 34.3583 10.5151 33.1528C10.1802 31.5454 8.50586 31.0765 7.70216 33.0188C6.2287 29.938 8.77377 29.0003 10.3812 29.938C7.90309 27.4599 7.56821 25.1827 9.57747 22.5037C12.3904 24.6469 12.4574 26.7901 11.1849 29.804C12.8593 27.9287 15.4043 28.9333 14.4667 31.9472C13.2611 30.1389 11.7207 31.2775 11.9886 33.0188C12.1895 34.5593 14.1988 35.7648 16.6769 35.5639C20.2935 35.229 20.4944 32.7509 20.5614 30.7417C19.6907 30.6077 18.0833 31.4114 16.7438 33.2867L16.275 27.5938C17.7485 29.1343 19.088 29.4022 20.5614 29.4691C20.0926 27.9287 17.8154 25.3836 17.8154 25.3836H24.9148H24.7809Z" fill="black"/>
<path d="M151.366 29.0001C154.066 29.0001 156.255 26.8111 156.255 24.1109C156.255 21.4106 154.066 19.2217 151.366 19.2217C148.666 19.2217 146.477 21.4106 146.477 24.1109C146.477 26.8111 148.666 29.0001 151.366 29.0001Z" fill="black"/>
<path d="M62.9129 27.628C63.1808 28.8403 63.7166 29.7779 64.3931 30.7223C65.0628 31.6599 65.8732 32.3364 66.8109 32.8722C67.7485 33.408 68.9608 33.6759 70.307 33.6759C71.6532 33.6759 72.7248 33.408 73.5352 33.0061C74.4729 32.6043 75.1493 32.0685 75.6851 31.392C76.2209 30.7223 76.6228 30.0458 76.7634 29.3761C76.9041 28.7063 77.0313 28.0299 77.0313 27.3601V27.4539H69.7578V22.7522H83.1997V38.8799H77.8216V35.156C77.4198 35.6918 76.8974 36.2343 76.3549 36.7701C75.8191 37.3059 75.1426 37.5738 74.4728 37.9824C73.8031 38.2503 72.9927 38.5182 72.189 38.7861C71.3853 39.054 70.5749 39.054 69.6372 39.054C67.7735 39.097 65.9239 38.7202 64.2254 37.9516C62.527 37.1829 61.0232 36.0421 59.8254 34.6135C58.7537 33.2673 57.8094 31.6599 57.2736 29.9119C56.7378 28.1638 56.3359 26.1479 56.3359 23.998C56.3359 21.848 56.6038 19.966 57.2736 18.084C58.2226 15.3921 59.9889 13.064 62.3256 11.4249C64.6624 9.78579 67.4528 8.9177 70.307 8.9419C72.4569 8.9419 72.9927 9.07585 74.205 9.4777C75.4172 9.7456 76.6228 10.2814 77.5671 10.8239C78.6454 11.3597 79.4491 12.1701 80.2528 12.9738C81.0565 13.7775 81.733 14.7219 82.1348 15.7935L77.0246 18.7471C76.7567 18.0773 76.3549 17.5348 75.9463 16.999C75.5445 16.4632 75.0087 16.0614 74.4662 15.6528C73.9304 15.251 73.2539 14.9831 72.5841 14.7152C71.9144 14.4473 71.104 14.4473 70.1663 14.4473C68.8201 14.4473 67.6146 14.7152 66.6702 15.251C65.7326 15.7868 64.9222 16.4632 64.2524 17.4009C63.5827 18.3385 63.1741 19.2829 62.7723 20.4951C62.5044 21.7074 62.3704 22.9799 62.3704 24.1252C62.3704 25.2705 62.9062 27.6213 62.9062 27.6213L62.9129 27.628ZM101.625 8.9419C103.775 8.9419 105.791 9.34375 107.405 10.1542C109.019 10.9579 110.633 12.0362 111.838 13.3824C113.044 14.7286 113.988 16.336 114.524 18.084C115.06 19.8321 115.462 21.848 115.462 23.998C115.462 26.1479 115.194 28.0299 114.524 29.9119C113.854 31.7939 112.91 33.274 111.838 34.6135C110.767 35.953 109.153 37.0313 107.405 37.8417C105.657 38.6521 103.775 39.054 101.625 39.054C99.4747 39.054 97.4588 38.6521 95.8447 37.8417C94.2306 37.0313 92.6165 35.9597 91.5449 34.6135C90.4733 33.2673 89.3949 31.6599 88.8591 29.9119C88.3233 28.1638 87.9215 26.1479 87.9215 23.998C87.9215 21.848 88.1894 19.966 88.8591 18.084C89.5289 16.202 90.4733 14.7219 91.5449 13.3824C92.6165 12.0429 94.2306 10.9646 95.8447 10.1542C97.4588 9.34375 99.4747 8.9419 101.625 8.9419ZM101.625 33.5419C102.837 33.5419 104.042 33.274 104.987 32.8722C105.931 32.4703 106.735 31.6599 107.405 30.8562C108.074 30.0525 108.617 28.9742 108.885 27.9026C109.153 26.6904 109.421 25.4848 109.421 24.1386C109.421 22.6584 109.287 21.3189 108.885 20.1067C108.483 18.8944 108.081 17.9568 107.405 17.0124C106.735 16.2087 105.924 15.5323 104.987 14.9965C104.049 14.4607 102.837 14.3267 101.625 14.3267C100.412 14.3267 99.2068 14.5946 98.2625 14.9965C97.3248 15.5323 96.5144 16.2087 95.8447 17.0124C95.1749 17.8161 94.6324 18.8944 94.3645 20.1067C94.0966 21.3189 93.8287 22.5245 93.8287 23.8707C93.8287 25.4848 93.9627 26.6904 94.3645 27.9026C94.6324 29.1149 95.1682 30.0525 95.8447 30.8562C96.5211 31.6599 97.3248 32.3364 98.2625 32.8722C99.2001 33.408 100.412 33.5419 101.625 33.5419ZM125.95 38.8732L117.752 9.30357H124.336L129.982 31.2514H130.25L135.762 9.30357H142.346L134.148 38.8732H125.95ZM175.606 33.5419C177.066 33.5419 177.956 33.1401 177.956 33.1401C178.76 32.7382 179.303 32.4703 179.838 31.9278C180.374 31.3853 180.776 30.7156 181.051 30.0458C181.37 29.1845 181.551 28.278 181.586 27.3601V9.31026H187.366V28.1638C187.366 29.7779 187.099 31.2581 186.429 32.5976C185.893 33.9438 184.949 35.0154 184.011 35.9597C183.073 36.9041 181.727 37.5738 180.247 38.1096C178.767 38.6455 177.153 38.9133 175.545 38.9133C173.938 38.9133 172.183 38.6455 170.844 38.1096C169.363 37.5738 168.158 36.8974 167.08 35.9597C166.001 35.0221 165.198 33.9438 164.662 32.5976C164.126 31.2514 163.724 29.7779 163.724 28.1638V9.31026H169.504V27.3601C169.504 28.4384 169.638 29.3761 170.04 30.0458C170.308 30.8495 170.844 31.526 171.386 31.9278C171.922 32.4636 172.598 32.8655 173.268 33.1401C173.268 33.1401 174.166 33.5419 175.619 33.5419H175.606ZM198.525 9.31026V21.982L209.006 9.31026H216.253L206.186 20.9104L216.923 38.8799H210.084L202.422 25.3442L198.658 29.51V38.8799H192.745V9.31026" fill="black"/>
</g>
<defs>
<clipPath id="clip0_1655_10949">
<rect width="217" height="40.1852" fill="white"/>
</clipPath>
</defs>
</svg>
