<svg width="217" height="32" viewBox="0 0 217 32" fill="none" xmlns="http://www.w3.org/2000/svg">
<g clip-path="url(#clip0_1655_10930)">
<path fill-rule="evenodd" clip-rule="evenodd" d="M13.4986 18.0017C13.7801 17.3553 13.9194 16.6642 13.9194 15.9314C13.9194 15.1985 13.7801 14.5095 13.4986 13.8614C13.2167 13.2153 12.8365 12.6466 12.3525 12.1593C11.8689 11.6686 11.3022 11.2822 10.6483 10.997C9.99688 10.7118 9.29876 10.5692 8.55517 10.5692C7.80249 10.5692 7.10024 10.7118 6.44676 10.997C5.79535 11.2822 5.23073 11.6666 4.75209 12.1502C4.27221 12.6338 3.89319 13.2025 3.61336 13.8539C3.33353 14.5074 3.19465 15.1985 3.19465 15.9314C3.19465 16.6642 3.33353 17.3574 3.61336 18.0088C3.89319 18.6606 4.27221 19.2289 4.75209 19.7129C5.23073 20.1961 5.79535 20.5805 6.44676 20.8657C7.10024 21.1509 7.80249 21.2935 8.55517 21.2935C9.29876 21.2935 9.99688 21.1509 10.6483 20.8657C11.3022 20.5805 11.8689 20.1945 12.3525 19.7051C12.8365 19.2161 13.2167 18.6474 13.4986 18.0017ZM14.6068 9.88181C15.4405 10.7064 16.0671 11.6248 16.4854 12.6392C16.9024 13.6539 17.112 14.7509 17.112 15.9314C17.112 18.3138 16.2762 20.3317 14.6068 21.9813C13.7512 22.8278 12.8199 23.4561 11.8184 23.8674C10.8165 24.2807 9.72656 24.4861 8.55517 24.4861C6.50835 24.4861 4.72316 23.8599 3.19465 22.6075V30.231C3.19465 30.6894 3.03759 31.0684 2.72717 31.3702C2.41676 31.6698 2.03732 31.8191 1.59009 31.8191C1.13005 31.8191 0.75268 31.6698 0.453013 31.3702C0.151693 31.0684 0 30.6894 0 30.231V15.9314C0 13.5687 0.83576 11.5529 2.50687 9.88181C4.17673 8.21194 6.19256 7.3766 8.55517 7.3766C10.8979 7.3766 12.9138 8.21194 14.6068 9.88181ZM31.3089 7.79716C31.7421 7.95381 32.1012 8.1704 32.3864 8.44692C32.6712 8.72096 32.8122 9.07684 32.8122 9.51539C32.8122 9.74065 32.7708 9.94856 32.684 10.1416C32.5972 10.3346 32.4819 10.5061 32.3393 10.6541C32.1967 10.8004 32.0273 10.9158 31.8359 10.9972C31.6429 11.0782 31.4333 11.1195 31.2097 11.1195C31.0162 11.1195 30.7926 11.0637 30.538 10.9521C29.8957 10.6975 29.1992 10.5694 28.4445 10.5694C27.7009 10.5694 27.0024 10.7099 26.3526 10.9897C25.6995 11.2696 25.1308 11.6519 24.6472 12.1359C24.1632 12.6195 23.7825 13.1879 23.501 13.8397C23.2212 14.4915 23.0823 15.1896 23.0823 15.9316V22.8983C23.0823 23.3368 22.9273 23.7105 22.6165 24.0205C22.3061 24.3309 21.9308 24.4859 21.4939 24.4859C21.0446 24.4859 20.6656 24.3309 20.3551 24.0205C20.0427 23.7105 19.8893 23.3368 19.8893 22.8983V8.96483C19.8893 8.52794 20.0427 8.15428 20.3551 7.84222C20.6656 7.5318 21.0446 7.37639 21.4939 7.37639C21.9308 7.37639 22.3061 7.5318 22.6165 7.84222C22.9273 8.15428 23.0823 8.52794 23.0823 8.96483V9.27152C23.8457 8.65979 24.6757 8.19065 25.571 7.86578C26.4679 7.53883 27.4248 7.37639 28.4445 7.37639C28.8921 7.37639 29.372 7.40739 29.8883 7.46856C30.4029 7.52974 30.8757 7.64009 31.3089 7.79716ZM46.9352 18.0015C47.2151 17.3555 47.354 16.6644 47.354 15.9316C47.354 15.1987 47.2151 14.5093 46.9352 13.8616C46.6538 13.2151 46.2727 12.6468 45.7907 12.1595C45.3055 11.6684 44.7371 11.2824 44.0853 10.9972C43.4339 10.712 42.7354 10.5694 41.9918 10.5694C41.2391 10.5694 40.5368 10.712 39.8838 10.9972C39.234 11.2824 38.6669 11.6668 38.1891 12.1504C37.7105 12.634 37.3298 13.2027 37.05 13.8541C36.7705 14.5076 36.6313 15.1987 36.6313 15.9316C36.6313 16.6644 36.7705 17.3576 37.05 18.0086C37.3298 18.6604 37.7105 19.2291 38.1891 19.7127C38.6669 20.1963 39.234 20.5807 39.8838 20.8659C40.5368 21.1507 41.2391 21.2933 41.9918 21.2933C42.7354 21.2933 43.4339 21.1507 44.0853 20.8659C44.7371 20.5807 45.3055 20.1947 45.7907 19.7053C46.2727 19.2163 46.6538 18.6476 46.9352 18.0015ZM48.0434 9.8816C48.8775 10.7174 49.5016 11.6379 49.9154 12.6468C50.3266 13.6557 50.5379 14.7511 50.5486 15.9316C50.5486 18.314 49.7128 20.3319 48.0434 21.9815C46.3524 23.651 44.3362 24.4859 41.9918 24.4859C39.6308 24.4859 37.6133 23.651 35.9439 21.9815C34.2724 20.31 33.4383 18.2938 33.4383 15.9316C33.4383 13.5689 34.2724 11.5531 35.9439 9.8816C37.6133 8.21215 39.6308 7.37639 41.9918 7.37639C44.3362 7.37639 46.3524 8.21215 48.0434 9.8816ZM66.7766 18.0017C67.0577 17.3553 67.1966 16.6642 67.1966 15.9314C67.1966 15.1985 67.0577 14.5095 66.7766 13.8614C66.4968 13.2153 66.1157 12.6466 65.6317 12.1593C65.1481 11.6686 64.5798 11.2822 63.9267 10.997C63.277 10.7118 62.578 10.5692 61.8344 10.5692C61.0817 10.5692 60.3778 10.7118 59.726 10.997C59.0746 11.2822 58.5096 11.6666 58.0293 12.1502C57.551 12.6338 57.172 13.2025 56.8926 13.8539C56.6128 14.5074 56.4735 15.1985 56.4735 15.9314C56.4735 16.6642 56.6128 17.3574 56.8926 18.0088C57.172 18.6606 57.551 19.2289 58.0293 19.7129C58.5096 20.1961 59.0746 20.5805 59.726 20.8657C60.3778 21.1509 61.0817 21.2935 61.8344 21.2935C62.578 21.2935 63.277 21.1509 63.9267 20.8657C64.5798 20.5805 65.1481 20.1945 65.6317 19.7051C66.1157 19.2161 66.4968 18.6474 66.7766 18.0017ZM67.8844 9.88181C68.7185 10.7064 69.3463 11.6248 69.765 12.6392C70.1804 13.6539 70.3917 14.7509 70.3917 15.9314C70.3917 18.3138 69.5555 20.3317 67.8844 21.9813C67.0308 22.8278 66.0996 23.4561 65.096 23.8674C64.0941 24.2807 63.0058 24.4861 61.8344 24.4861C59.7872 24.4861 58.0008 23.8599 56.4735 22.6075V30.231C56.4735 30.6894 56.3168 31.0684 56.0064 31.3702C55.696 31.6698 55.3166 31.8191 54.8689 31.8191C54.4089 31.8191 54.0299 31.6698 53.7302 31.3702C53.4289 31.0684 53.2792 30.6894 53.2792 30.231V15.9314C53.2792 13.5687 54.1129 11.5529 55.7824 9.88181C57.4556 8.21194 59.4714 7.3766 61.8344 7.3766C64.1772 7.3766 66.193 8.21194 67.8844 9.88181ZM76.515 14.3433H86.8124C86.6388 13.782 86.3804 13.2711 86.0394 12.8073C85.698 12.3436 85.3029 11.9464 84.8482 11.6161C84.3956 11.2842 83.8955 11.0275 83.3519 10.8436C82.8051 10.6613 82.2454 10.5691 81.6643 10.5691C81.0831 10.5691 80.519 10.6613 79.968 10.8436C79.4174 11.0275 78.914 11.2842 78.4556 11.6161C77.9972 11.9464 77.5996 12.3436 77.2639 12.8073C76.9283 13.2711 76.6774 13.782 76.515 14.3433ZM87.7126 9.88177C88.548 10.7064 89.1762 11.6252 89.5916 12.6395C90.0099 13.6538 90.2178 14.7508 90.2178 15.9313C90.2178 16.3897 90.0641 16.7687 89.752 17.07C89.4416 17.3697 89.063 17.5214 88.6133 17.5214H76.515C76.6886 18.0811 76.9411 18.5936 77.2784 19.0557C77.6149 19.5195 78.01 19.9163 78.463 20.2469C78.9156 20.5788 79.4158 20.8351 79.9585 21.019C80.5061 21.2017 81.0728 21.2935 81.6643 21.2935C82.3355 21.2935 82.9518 21.1922 83.5107 20.9889C84.074 20.7847 84.5919 20.4796 85.0706 20.0721C85.3769 19.8171 85.7274 19.6852 86.1262 19.6745C86.583 19.6745 86.9632 19.8245 87.2612 20.1258C87.5626 20.4255 87.7126 20.8045 87.7126 21.2633C87.7126 21.711 87.5609 22.0933 87.2542 22.4091C85.6765 23.795 83.812 24.4865 81.6643 24.4865C79.3 24.4865 77.2842 23.6511 75.6131 21.9813C73.9436 20.3102 73.1095 18.2939 73.1095 15.9313C73.1095 13.5691 73.9436 11.5529 75.6131 9.88177C77.2842 8.2119 79.3 7.37655 81.6643 7.37655C84.0075 7.37655 86.0233 8.2119 87.7126 9.88177ZM104.453 7.79716C104.886 7.95381 105.245 8.1704 105.53 8.44692C105.813 8.72096 105.958 9.07684 105.958 9.51539C105.958 9.74065 105.913 9.94856 105.828 10.1416C105.739 10.3346 105.627 10.5061 105.485 10.6541C105.34 10.8004 105.174 10.9158 104.979 10.9972C104.786 11.0782 104.577 11.1195 104.353 11.1195C104.161 11.1195 103.935 11.0637 103.682 10.9521C103.04 10.6975 102.341 10.5694 101.589 10.5694C100.843 10.5694 100.148 10.7099 99.4948 10.9897C98.8434 11.2696 98.2763 11.6519 97.7927 12.1359C97.3071 12.6195 96.9247 13.1879 96.6466 13.8397C96.3651 14.4915 96.2262 15.1896 96.2262 15.9316V22.8983C96.2262 23.3368 96.0708 23.7105 95.7608 24.0205C95.45 24.3309 95.0742 24.4859 94.6378 24.4859C94.1885 24.4859 93.8094 24.3309 93.499 24.0205C93.1882 23.7105 93.032 23.3368 93.032 22.8983V8.96483C93.032 8.52794 93.1882 8.15428 93.499 7.84222C93.8094 7.5318 94.1885 7.37639 94.6378 7.37639C95.0742 7.37639 95.45 7.5318 95.7608 7.84222C96.0708 8.15428 96.2262 8.52794 96.2262 8.96483V9.27152C96.9896 8.65979 97.8212 8.19065 98.7165 7.86578C99.6118 7.53883 100.568 7.37639 101.589 7.37639C102.036 7.37639 102.518 7.40739 103.032 7.46856C103.547 7.52974 104.019 7.64009 104.453 7.79716ZM117.906 21.2933C118.343 21.2933 118.715 21.4487 119.02 21.7612C119.327 22.0716 119.478 22.4452 119.478 22.8838C119.478 23.3314 119.327 23.7105 119.02 24.0209C118.715 24.3317 118.343 24.4867 117.906 24.4867C113.738 24.4867 111.658 22.4089 111.658 18.2545V10.831H109.893C109.465 10.831 109.094 10.6756 108.783 10.3652C108.474 10.0547 108.318 9.67572 108.318 9.22643C108.318 8.78953 108.474 8.41588 108.783 8.10381C109.094 7.7934 109.465 7.63799 109.893 7.63799H111.658V1.58844C111.658 1.15155 111.813 0.777893 112.124 0.465827C112.434 0.155413 112.813 0 113.261 0C113.698 0 114.072 0.155413 114.384 0.465827C114.693 0.777893 114.85 1.15155 114.85 1.58844V7.63799H117.806C118.243 7.63799 118.617 7.7934 118.921 8.10381C119.228 8.41588 119.379 8.78953 119.379 9.22643C119.379 9.67572 119.228 10.0547 118.921 10.3652C118.617 10.6756 118.243 10.831 117.806 10.831H114.85V18.2545C114.85 20.2794 115.868 21.2933 117.906 21.2933ZM136.081 7.84217C136.226 7.99015 136.339 8.15961 136.426 8.35471C136.512 8.54773 136.557 8.75192 136.557 8.96479C136.557 9.18881 136.5 9.42855 136.388 9.68316L127.603 30.7512C127.472 31.0665 127.266 31.3249 126.992 31.5216C126.717 31.7204 126.416 31.8192 126.091 31.8192C125.633 31.8192 125.254 31.6679 124.952 31.3613C124.653 31.0562 124.501 30.6735 124.501 30.2167C124.501 29.9716 124.553 29.7364 124.656 29.5132L127.419 22.8983L121.922 9.68316C121.819 9.44839 121.766 9.21031 121.766 8.96479C121.766 8.75192 121.808 8.54773 121.889 8.35471C121.97 8.15961 122.083 7.99015 122.225 7.84217C122.367 7.69379 122.536 7.58012 122.729 7.49952C122.922 7.41603 123.13 7.37635 123.357 7.37635C123.671 7.37635 123.967 7.46645 124.241 7.64336C124.517 7.82233 124.726 8.08397 124.869 8.43035L129.161 18.6823L133.455 8.39976C133.576 8.09307 133.75 7.84755 133.982 7.65824C134.212 7.47059 134.534 7.37635 134.951 7.37635C135.175 7.37635 135.383 7.41603 135.579 7.49952C135.77 7.58012 135.938 7.69379 136.081 7.84217ZM161.477 9.3849C162.093 10.0008 162.581 10.7241 162.943 11.5545C163.305 12.3845 163.486 13.2636 163.486 14.1895V22.8835C163.486 23.3312 163.33 23.7102 163.021 24.0206C162.71 24.3314 162.334 24.486 161.898 24.486C161.45 24.486 161.073 24.3314 160.768 24.0206C160.461 23.7102 160.307 23.3312 160.307 22.8835V14.1895C160.307 13.7005 160.214 13.2368 160.024 12.7999C159.838 12.363 159.58 11.9769 159.253 11.6467C158.928 11.3164 158.544 11.0527 158.1 10.8597C157.658 10.6666 157.181 10.5691 156.672 10.5691C156.172 10.5691 155.703 10.6666 155.266 10.8597C154.83 11.0527 154.443 11.3127 154.114 11.6376C153.783 11.9641 153.523 12.3468 153.333 12.7837C153.145 13.2223 153.051 13.6914 153.051 14.1895V22.8835C153.051 23.3312 152.894 23.7102 152.586 24.0206C152.274 24.3314 151.9 24.486 151.463 24.486C151.012 24.486 150.635 24.3314 150.326 24.0206C150.015 23.7102 149.86 23.3312 149.86 22.8835V14.1895C149.86 13.6914 149.761 13.2223 149.569 12.7837C149.376 12.3468 149.115 11.9641 148.788 11.6376C148.463 11.3127 148.081 11.0527 147.643 10.8597C147.206 10.6666 146.737 10.5691 146.239 10.5691C145.739 10.5691 145.271 10.6629 144.833 10.8526C144.394 11.0403 144.01 11.3003 143.678 11.6301C143.347 11.9624 143.089 12.3468 142.9 12.7837C142.712 13.2223 142.618 13.6914 142.618 14.1895V22.8835C142.618 23.3312 142.461 23.7102 142.152 24.0206C141.84 24.3314 141.464 24.486 141.028 24.486C140.58 24.486 140.201 24.3314 139.891 24.0206C139.579 23.7102 139.424 23.3312 139.424 22.8835V8.96454C139.424 8.52765 139.579 8.15399 139.891 7.84193C140.201 7.53151 140.575 7.37651 141.014 7.37651C141.369 7.37651 141.685 7.47571 141.961 7.67411C142.235 7.87251 142.423 8.13457 142.525 8.4611C143.616 7.73735 144.853 7.37651 146.239 7.37651C147.254 7.37651 148.213 7.57863 149.11 7.97915C150.005 8.38339 150.791 8.99182 151.463 9.80361C152.878 8.18665 154.615 7.37651 156.672 7.37651C157.599 7.37651 158.478 7.55673 159.308 7.91963C160.136 8.28047 160.861 8.76986 161.477 9.3849ZM198.538 7.79493C198.969 7.95365 199.328 8.17024 199.613 8.44469C199.898 8.71914 200.041 9.07668 200.041 9.51522C200.041 9.73884 199.998 9.94633 199.913 10.1414C199.824 10.3344 199.711 10.5043 199.568 10.6523C199.426 10.8003 199.258 10.9156 199.065 10.997C198.87 11.078 198.66 11.1194 198.438 11.1194C198.244 11.1194 198.02 11.0615 197.766 10.9499C197.123 10.6953 196.426 10.5692 195.672 10.5692C194.928 10.5692 194.231 10.7081 193.58 10.9875C192.927 11.2673 192.359 11.6501 191.876 12.1337C191.392 12.6177 191.01 13.1865 190.73 13.8379C190.45 14.4913 190.311 15.1878 190.311 15.9314V22.8981C190.311 23.3354 190.154 23.7103 189.844 24.0207C189.534 24.3312 189.16 24.4862 188.721 24.4862C188.274 24.4862 187.893 24.3312 187.583 24.0207C187.272 23.7103 187.117 23.3354 187.117 22.8981V8.96466C187.117 8.52612 187.272 8.15246 187.583 7.84205C187.893 7.53164 188.274 7.37622 188.721 7.37622C189.16 7.37622 189.534 7.53164 189.844 7.84205C190.154 8.15246 190.311 8.52612 190.311 8.96466V9.2697C191.074 8.65962 191.903 8.19049 192.802 7.86354C193.697 7.53866 194.654 7.37622 195.672 7.37622C196.119 7.37622 196.601 7.40722 197.115 7.4684C197.632 7.52792 198.103 7.63786 198.538 7.79493ZM216.319 21.7411C216.615 22.066 216.763 22.4384 216.763 22.8567C216.763 23.0696 216.72 23.2738 216.633 23.4668C216.547 23.6598 216.431 23.8297 216.289 23.9793C216.147 24.1273 215.978 24.2414 215.785 24.3224C215.592 24.4034 215.382 24.4447 215.159 24.4447C214.731 24.4447 214.376 24.3059 214.09 24.0318L207.277 16.379L206.179 17.39L206.069 17.4925V22.8406C206.069 23.2791 205.914 23.654 205.604 23.9723C205.293 24.2881 204.918 24.4447 204.481 24.4447C204.032 24.4447 203.654 24.2881 203.342 23.9723C203.034 23.654 202.877 23.2791 202.877 22.8406V1.60477C202.877 1.15713 203.034 0.7781 203.342 0.467273C203.654 0.157273 204.032 0.000206667 204.481 0.000206667C204.918 0.000206667 205.293 0.157273 205.604 0.467273C205.914 0.7781 206.069 1.15713 206.069 1.60477V13.1682L211.895 7.75351C212.12 7.55139 212.387 7.41954 212.698 7.36746C212.919 7.32943 213.13 7.33481 213.333 7.38193C213.539 7.43029 213.726 7.51378 213.891 7.63447C214.058 7.75723 214.198 7.90521 214.316 8.08046C214.435 8.25737 214.513 8.45039 214.549 8.66161C214.646 9.22291 214.518 9.67427 214.163 10.0153L209.648 14.1916L216.319 21.7411ZM179.867 18.0433C180.148 17.3932 180.288 16.7021 180.288 15.9659C180.288 15.231 180.148 14.5383 179.867 13.8902C179.585 13.2404 179.203 12.6721 178.717 12.181C178.231 11.692 177.663 11.3023 177.01 11.0167C176.354 10.7319 175.656 10.5872 174.909 10.5872C174.154 10.5872 173.448 10.7319 172.795 11.0167C172.142 11.3023 171.574 11.6883 171.093 12.1736C170.613 12.6592 170.233 13.2276 169.951 13.8831C169.671 14.5362 169.53 15.231 169.53 15.9659C169.53 16.7021 169.671 17.3969 169.951 18.0504C170.233 18.7038 170.613 19.2738 171.093 19.7595C171.574 20.2431 172.142 20.6291 172.795 20.9164C173.448 21.2016 174.154 21.3442 174.909 21.3442C175.656 21.3442 176.354 21.2016 177.01 20.9164C177.663 20.6291 178.231 20.2414 178.717 19.7508C179.203 19.2614 179.585 18.6914 179.867 18.0433ZM181.897 7.37643C182.336 7.37643 182.711 7.53184 183.024 7.84391C183.336 8.15432 183.491 8.53004 183.491 8.97024V15.9568V15.9659V22.9541C183.491 23.3931 183.336 23.768 183.024 24.0805C182.711 24.3925 182.336 24.548 181.897 24.548C181.448 24.548 181.066 24.3925 180.754 24.0805C180.444 23.768 180.288 23.3931 180.288 22.9541V22.647C179.522 23.2612 178.69 23.7304 177.792 24.0569C176.891 24.3839 175.93 24.548 174.909 24.548C172.539 24.548 170.516 23.7101 168.841 22.0336C167.166 20.3588 166.327 18.3356 166.327 15.9659C166.327 13.5959 167.166 11.5747 168.841 9.89776C170.516 8.22294 172.539 7.38552 174.909 7.38552C175.934 7.38552 176.895 7.5554 177.796 7.8745L177.792 7.86582C177.827 7.87987 177.861 7.8964 177.897 7.91087C178.083 7.97948 178.266 8.05347 178.446 8.13614C178.451 8.1382 178.459 8.14151 178.464 8.14523C178.994 8.3891 179.504 8.69207 179.988 9.05704C180.088 9.12896 180.19 9.19758 180.288 9.27694V8.97024C180.288 8.53004 180.444 8.15432 180.754 7.84391C181.066 7.53184 181.448 7.37643 181.897 7.37643Z" fill="#E1D9D9"/>
</g>
<defs>
<clipPath id="clip0_1655_10930">
<rect width="217" height="31.8267" fill="white"/>
</clipPath>
</defs>
</svg>
