<svg width="224" height="66" viewBox="0 0 224 66" fill="none" xmlns="http://www.w3.org/2000/svg">
<path d="M100.496 33.3444C98.495 33.3444 98.0988 36.197 98.0988 38.8987C98.0988 41.6141 98.4721 44.4453 100.496 44.4453C102.55 44.4453 102.893 41.6141 102.893 38.891C102.893 36.197 102.474 33.3444 100.496 33.3444ZM100.496 47.1912C96.0767 47.1912 94.303 43.525 94.303 39.0358C94.303 34.5695 96.0751 30.8789 100.496 30.8789C104.916 30.8789 106.69 34.5695 106.69 39.0358C106.69 43.525 104.916 47.1836 100.496 47.1836M123.002 46.9642V38.2602C123.002 37.3154 122.446 36.5779 121.206 36.5779C120.918 36.5657 120.63 36.6126 120.36 36.7159C120.091 36.8191 119.846 36.9765 119.639 37.1783V46.9642H116.048V38.2145C116.048 37.224 115.356 36.5779 114.108 36.5779C113.616 36.5591 113.124 36.6367 112.662 36.8065V46.9642H109.07V35.2461C110.448 34.6213 111.924 34.3181 114.093 34.3181C116.139 34.3181 117.311 34.8743 118.026 35.5661C118.81 34.8956 120.08 34.3181 122.128 34.3181C125.072 34.3181 126.592 36.0674 126.592 38.2602V46.9642H123.002ZM134.193 36.389C133.746 36.3649 133.3 36.4589 132.901 36.6617V44.7958C133.256 44.9269 133.632 44.9878 134.012 44.9787C135.83 44.9787 136.613 43.3634 136.613 40.5794C136.613 38.1611 136.104 36.389 134.193 36.389ZM133.797 47.147C131.661 47.147 130.146 46.7509 129.309 46.2251V28.8324H132.901V34.7981C133.622 34.4623 134.412 34.3055 135.207 34.341C138.128 34.341 140.151 36.6846 140.151 40.3524C140.151 44.7044 137.876 47.1455 133.797 47.1455V47.147ZM147.653 47.1928C144.153 47.1928 142.449 45.8823 142.449 42.885V34.5467H146.041V43.144C146.041 44.0339 146.528 44.773 147.744 44.773C148.263 44.7973 148.778 44.6922 149.244 44.4682V34.5543H152.834V46.2328C151.685 46.8118 149.981 47.1928 147.653 47.1928ZM162.391 36.5413C162.07 36.446 161.737 36.3998 161.402 36.4042C159.423 36.4042 158.663 38.1078 158.663 40.6632C158.663 43.3573 159.469 44.9025 161.288 44.9025C161.665 44.9284 162.043 44.8658 162.391 44.7196V36.5413ZM161.22 47.1775C157.46 47.1775 155.109 44.9695 155.109 40.8232C155.109 36.837 157.369 34.4019 160.572 34.4019C161.311 34.4019 161.927 34.4933 162.391 34.6076V28.8705H165.966V46.2571C164.825 46.8651 163.357 47.1775 161.22 47.1775ZM171.589 47.1928C170.318 47.2298 169.061 46.9189 167.953 46.2937L168.866 44.011C169.329 44.3844 170.183 44.7272 171.08 44.7272C172.001 44.7272 172.624 44.1558 172.624 43.371C172.624 42.536 172.191 42.0789 171.034 41.6217C168.752 40.7166 168.249 39.4533 168.249 38.1611C168.249 36.0446 169.908 34.341 172.395 34.341C173.94 34.341 174.998 34.6457 175.972 35.24L175.089 37.2926C174.547 36.879 173.885 36.6523 173.203 36.6465C172.26 36.6465 171.772 37.2179 171.772 37.9402C171.772 38.7631 172.397 39.2263 173.37 39.6362C175.758 40.648 176.307 41.8274 176.307 43.2735C176.307 45.4419 174.535 47.1928 171.589 47.1928ZM192.452 46.9642V38.2602C192.452 37.3154 191.897 36.5779 190.656 36.5779C190.368 36.5655 190.08 36.6123 189.81 36.7156C189.541 36.8188 189.295 36.9763 189.088 37.1783V46.9642H185.498V38.2145C185.498 37.224 184.805 36.5779 183.557 36.5779C183.065 36.5591 182.574 36.6367 182.112 36.8065V46.9642H178.521V35.2461C179.898 34.6213 181.373 34.3181 183.542 34.3181C185.588 34.3181 186.76 34.8743 187.476 35.5661C188.26 34.8956 189.53 34.3181 191.577 34.3181C194.521 34.3181 196.043 36.0674 196.043 38.2602V46.9642H192.452ZM205.12 40.421C202.952 40.6251 201.544 41.1356 201.544 43.1135C201.544 44.5596 202.381 45.1829 203.812 45.1829C204.261 45.1981 204.708 45.1112 205.12 44.9314V40.421ZM203.621 47.1684C200.029 47.1684 198.189 45.8305 198.189 43.2507C198.189 40.0552 201.384 39.112 205.12 38.7615V38.1825C205.12 36.8903 204.244 36.5246 202.937 36.5246C201.735 36.5246 200.509 36.9208 199.711 37.2865L198.926 35.2309C200.405 34.6092 201.994 34.2911 203.598 34.2952C206.413 34.2952 208.484 35.4686 208.484 38.8301V46.248C207.447 46.7966 205.767 47.1684 203.621 47.1684ZM218.161 46.9642V38.2815C218.161 37.4069 217.765 36.555 216.319 36.555C215.801 36.5447 215.285 36.6299 214.798 36.8065V46.9642H211.207V35.2461C212.859 34.584 214.631 34.2681 216.41 34.3181C220.345 34.3181 221.751 36.0004 221.751 38.2602V46.9642H218.161ZM100.519 10.5192V23.8571H96.7624V10.5192H93.9997V8.008H103.26V10.5192H100.52H100.519ZM112.313 23.8343V15.1379C112.313 14.1718 111.879 13.387 110.471 13.387C109.942 13.3707 109.418 13.4915 108.95 13.7375V23.8343H105.357V8.06133H108.947V11.7733C109.786 11.3944 110.697 11.1995 111.618 11.2019C114.73 11.2019 115.901 12.9985 115.901 15.0678V23.8328H112.31L112.313 23.8343ZM123.65 13.3352C122.172 13.3352 121.252 14.597 121.366 17.1539L125.703 16.5139C125.703 14.3074 124.956 13.3337 123.648 13.3337L123.65 13.3352ZM121.593 18.9124C121.852 20.7303 122.774 21.6278 124.592 21.6278C126.038 21.6278 127.149 21.3002 127.818 20.9573L128.625 23.1943C127.236 23.841 125.713 24.1491 124.182 24.0933C120.377 24.0933 118.186 21.5821 118.186 17.6171C118.186 13.7223 120.217 11.2187 123.786 11.2187C127.377 11.2187 129.195 13.6537 129.035 17.8472L121.594 18.9109L121.593 18.9124ZM141.863 9.90971C141.479 9.90025 141.097 9.96226 140.736 10.0926V15.7611L141.239 15.784C143.598 15.8983 144.442 14.9093 144.442 12.8324C144.442 10.8545 143.757 9.90971 141.863 9.90971ZM141.239 17.9524L140.736 17.899V23.8648H137.07V8.71657C138.204 8.16038 139.885 7.79467 141.885 7.79467C146.283 7.79467 147.988 10.024 147.988 12.8537C147.988 15.8297 146.01 18.3851 141.239 17.9524ZM156.128 13.7909C155.754 13.6209 155.349 13.5273 154.938 13.5156C154.526 13.5038 154.117 13.5741 153.733 13.7223V23.8556H150.141V12.1406C151.519 11.464 153.459 11.0983 156.799 11.2583L156.128 13.7909ZM163.015 13.4099C161.425 13.4099 161.105 15.3421 161.105 17.5562C161.105 19.7855 161.448 21.6126 163.015 21.6126C164.605 21.6126 164.924 19.7855 164.924 17.5562C164.924 15.3497 164.605 13.4099 163.015 13.4099ZM163.015 24.0461C159.423 24.0461 157.536 21.3078 157.536 17.6019C157.536 13.8899 159.423 11.173 162.992 11.173C166.606 11.173 168.493 13.8899 168.493 17.6034C168.493 21.3078 166.606 24.0476 163.015 24.0476V24.0461ZM175.478 13.3337C175.102 13.323 174.727 13.3851 174.375 13.5166V21.7421C174.602 21.8335 174.922 21.9006 175.318 21.9006C177.227 21.9006 178.079 20.4027 178.079 17.6187C178.079 14.8331 177.395 13.3337 175.478 13.3337ZM176.17 24.0232C175.564 24.0339 174.96 23.9622 174.375 23.8099V28.8095H170.775V12.139C171.84 11.6057 173.317 11.2187 175.524 11.2187C179.236 11.2187 181.625 13.4023 181.625 17.573C181.625 21.5592 179.396 24.0232 176.17 24.0232ZM188.928 13.3337C187.453 13.3337 186.533 14.5985 186.646 17.1539L190.984 16.5139C190.984 14.3074 190.237 13.3337 188.928 13.3337ZM186.874 18.9109C187.133 20.7303 188.054 21.6278 189.873 21.6278C191.318 21.6278 192.429 21.3002 193.099 20.9573L193.905 23.1943C192.516 23.8409 190.993 24.149 189.462 24.0933C185.657 24.0933 183.466 21.5821 183.466 17.6171C183.466 13.7223 185.498 11.2187 189.066 11.2187C192.657 11.2187 194.475 13.6537 194.315 17.8472L186.874 18.9109ZM202.586 13.7909C202.211 13.621 201.806 13.5275 201.395 13.5158C200.983 13.504 200.574 13.5742 200.189 13.7223V23.8556H196.598V12.1406C197.975 11.464 199.915 11.0983 203.255 11.2583L202.586 13.7909ZM209.335 24.0613C206.733 24.0613 205.607 22.3882 205.607 20.4712V13.7909H204.244V11.4625H205.607V8.8141L209.198 7.90133V11.4625H211.108V13.7909H209.198V20.197C209.198 21.1417 209.541 21.643 210.347 21.643C210.652 21.643 210.803 21.5973 211.108 21.5059V23.7124C210.547 23.949 209.944 24.0683 209.335 24.0629V24.0613ZM218.047 28.779H214.272L216.25 23.8343L212.218 11.4168H216.023L217.727 18.6C217.978 19.6651 217.978 20.555 217.978 20.555H218.024C218.024 20.555 218.1 19.656 218.365 18.5985L220.261 11.4168H223.624L218.047 28.779ZM85.8504 58.149L80.6298 50.4796H46.4081C44.3693 50.4796 42.7555 49.643 41.9952 48.197C41.2332 46.7448 41.4466 44.9482 42.6047 43.2674L59.1654 18.9566L48.1635 2.79657C45.6218 -0.93219 41.4679 -0.93219 38.9353 2.79657L1.1982 58.1474C-1.33589 61.8762 0.283916 64.9192 4.78982 64.9192H82.2664C86.7769 64.9192 88.383 61.8777 85.8504 58.149Z" fill="#002F65"/>
<path d="M66.3312 16.1496C66.956 16.1496 67.564 16.5306 68.044 17.23L86.7686 44.7348C87.2257 45.3961 87.3613 45.9965 87.1495 46.3775C86.9514 46.7737 86.3724 46.987 85.5739 46.987H47.0672C46.2687 46.987 45.6973 46.7737 45.4916 46.3775C45.2859 45.9965 45.423 45.3961 45.8725 44.7348L61.324 22.0834L64.6276 17.2377C65.1061 16.5367 65.7156 16.1557 66.3388 16.1557M87.9769 43.9272L69.2402 16.4148C68.9333 15.9122 68.5071 15.4932 67.9993 15.195C67.4916 14.8967 66.9181 14.7284 66.3297 14.7051C66.0935 14.7112 65.8573 14.7432 65.6287 14.8041C64.716 15.0437 63.9281 15.6203 63.4238 16.4178L60.4417 20.7912L44.6764 43.9226C43.9084 45.0548 43.7407 46.1733 44.2116 47.0632C44.6764 47.947 45.6958 48.4346 47.0657 48.4346H85.5724C86.7442 48.4346 87.6265 48.0613 88.1659 47.406C88.2573 47.2917 88.364 47.1927 88.4325 47.0632C88.9049 46.1733 88.7373 45.0548 87.9678 43.9211" fill="#002F65"/>
</svg>
