<svg width="170" height="72" viewBox="0 0 170 72" fill="none" xmlns="http://www.w3.org/2000/svg">
<path d="M64.1083 35.6748C64.1083 53.0598 50.0412 67.1534 32.6889 67.1534C15.3366 67.1534 1.26953 53.0598 1.26953 35.6748C1.26953 18.2899 15.3366 4.19629 32.6889 4.19629C50.0412 4.19629 64.1083 18.2899 64.1083 35.6748Z" fill="#00D99C"/>
<path d="M47.9192 20.7987C47.9192 13.165 41.1039 6.97363 32.6881 6.97363C24.2723 6.97363 17.457 13.165 17.457 20.7987C17.457 28.4324 24.2723 34.6238 32.6881 34.6238C41.1039 34.6238 47.9192 28.4324 47.9192 20.7987Z" fill="#001A96"/>
<path d="M82.4067 8.60039V12.0989H78.0265V23.9829H74.2513V12.0989H69.8711V8.60039H82.4067ZM87.1315 17.5077V20.7453H93.3112L92.9436 23.9829H83.3333V8.60039H92.9436L93.3112 11.838H87.1315V14.8378H92.6373V17.5077H87.1315ZM119.745 8.60039L125.343 23.8755L125.259 23.9829H121.07L120.136 21.1596H114.776L113.864 23.9829H109.745L109.66 23.8755L115.319 8.60039H119.745ZM115.626 18.5127H119.271L118.444 15.9733C118.137 15.0143 117.731 13.4108 117.486 11.9761H117.425C117.165 13.4108 116.751 15.0219 116.453 15.9963L115.626 18.5204V18.5127ZM141.018 16.3339C141.018 11.4237 144.319 8.16309 148.867 8.16309C150.736 8.16309 152.444 8.68479 154.098 9.70517L153.554 13.3801H153.424C152.145 12.2753 150.713 11.6846 149.258 11.6846C146.723 11.6846 145.069 13.5105 145.069 16.2725C145.069 19.0344 146.739 20.8987 149.319 20.8987C150.751 20.8987 152.229 20.3157 153.508 19.2032H153.638L154.159 22.8551C152.536 23.8755 150.751 24.4202 148.89 24.4202C144.204 24.4202 141.018 21.1826 141.018 16.3339ZM158.662 8.60039L160.201 11.815C160.722 12.9658 161.043 13.7714 161.48 14.8608H161.541C161.977 13.7714 162.299 12.9735 162.797 11.815L164.336 8.60039H168.67L168.731 8.7078L163.371 17.8759V23.9829H159.596V17.8759L154.236 8.7078L154.32 8.60039H158.662ZM71.2418 42.8179V27.4354H76.4031C82.0238 27.4354 85.2094 30.3277 85.2094 35.0844C85.2094 39.8411 81.8706 42.8179 76.4031 42.8179H71.2418ZM75.04 39.5112H76.2346C79.6576 39.5112 81.3499 38.1456 81.3499 35.0537C81.3499 31.9619 79.6806 30.7267 76.2729 30.7267H75.04V39.5035V39.5112ZM90.2022 36.3503V39.5879H96.3819L96.0143 42.8256H86.404V27.443H96.0143L96.3819 30.6806H90.2022V33.6804H95.708V36.3503H90.2022ZM109.224 32.568C109.224 35.6752 107.294 37.5855 103.718 37.5855H101.574V42.8256H97.7756V27.443H103.327C107.256 27.443 109.224 29.2229 109.224 32.568ZM103.151 34.6088C104.844 34.6088 105.625 33.9336 105.625 32.545C105.625 31.1563 104.798 30.4351 103.128 30.4351H101.566V34.6088H103.151ZM109.959 35.1305C109.959 30.4121 113.321 27.0057 118.16 27.0057C123 27.0057 126.362 30.4198 126.362 35.1305C126.362 39.8411 122.977 43.2552 118.16 43.2552C113.344 43.2552 109.959 39.7567 109.959 35.1305ZM122.387 35.1305C122.387 32.3915 120.695 30.4812 118.16 30.4812C115.626 30.4812 113.933 32.3915 113.933 35.1305C113.933 37.8694 115.649 39.7797 118.16 39.7797C120.672 39.7797 122.387 37.7773 122.387 35.1305ZM126.844 41.9509L127.365 38.5215H127.518C128.667 39.3654 130.298 40.0866 131.852 40.0866C133.238 40.0866 133.935 39.4805 133.935 38.6519C133.935 37.8234 133.46 37.3247 130.857 36.2429C127.908 35.0077 126.844 33.6574 126.844 31.3941C126.844 28.9161 128.858 27.0057 132.396 27.0057C134.111 27.0057 135.781 27.4814 136.929 28.1105L136.408 31.5246H136.278C135.107 30.6806 133.613 30.1743 132.312 30.1743C131.209 30.1743 130.704 30.673 130.704 31.3481C130.704 32.0616 131.025 32.4376 133.721 33.6114C136.822 34.977 137.817 36.4117 137.817 38.4371C137.817 41.1991 135.52 43.2629 131.982 43.2629C129.815 43.2629 128.016 42.6107 126.844 41.9586V41.9509ZM138.943 27.4277H142.741V42.8102H138.943V27.4277ZM156.204 27.4277V30.9262H151.823V42.8102H148.048V30.9262H143.668V27.4277H156.204ZM70.6598 60.7782L71.1806 57.3488H71.3337C72.4824 58.1927 74.1134 58.9139 75.6679 58.9139C77.054 58.9139 77.7508 58.3078 77.7508 57.4792C77.7508 56.6506 77.2761 56.152 74.6724 55.0702C71.7243 53.835 70.6598 52.4847 70.6598 50.2214C70.6598 47.7434 72.6738 45.833 76.2116 45.833C77.9269 45.833 79.5963 46.3087 80.745 46.9378L80.2243 50.3519H80.0941C78.9224 49.5079 77.4292 49.0016 76.1274 49.0016C75.0247 49.0016 74.5193 49.5003 74.5193 50.1754C74.5193 50.8889 74.8409 51.2648 77.5364 52.4387C80.6378 53.8043 81.6333 55.239 81.6333 57.2644C81.6333 60.0264 79.336 62.0901 75.7981 62.0901C73.631 62.0901 71.8315 61.438 70.6598 60.7859V60.7782ZM82.3684 53.9884C82.3684 49.0783 85.6688 45.8177 90.2175 45.8177C92.086 45.8177 93.7936 46.3394 95.4477 47.3598L94.904 51.0347H94.7738C93.495 49.9299 92.063 49.3391 90.608 49.3391C88.0733 49.3391 86.4193 51.1651 86.4193 53.9271C86.4193 56.689 88.0887 58.5533 90.6693 58.5533C92.1013 58.5533 93.5792 57.9702 94.858 56.8578H94.9882L95.5089 60.5097C93.8855 61.5301 92.1013 62.0748 90.2405 62.0748C85.554 62.0748 82.3684 58.8372 82.3684 53.9884ZM106.712 46.255H110.487V61.6375H106.712V55.5305H100.854V61.6375H97.0558V46.255H100.854V52.2315H106.712V46.255ZM116.583 55.1623V58.3999H122.763L122.395 61.6375H112.785V46.255H122.395L122.763 49.4926H116.583V52.4924H122.089V55.1623H116.583ZM124.585 61.6375V46.255H129.18L133.085 54.2109H133.146L137.029 46.255H141.608V61.6375H137.902V55.5305C137.902 54.0345 137.948 52.4847 137.986 50.9886H137.917L136.095 54.5715L133.299 60.1107H132.909L130.091 54.5715C129.486 53.3747 128.873 52.1778 128.291 50.9886H128.23C128.253 52.4847 128.291 54.0345 128.291 55.5305V61.6375H124.585ZM147.236 55.1623V58.3999H153.416L153.049 61.6375H143.438V46.255H153.049L153.416 49.4926H147.236V52.4924H152.742V55.1623H147.236ZM104.981 8.58505V17.5537C104.108 16.1497 103.427 15.2061 102.745 14.3238L98.3423 8.58505H94.6742V23.9676H98.4495V14.692C99.3531 16.0883 100.05 17.0243 100.724 17.9066L105.602 24.075H108.726V8.60039H104.974L104.981 8.58505ZM136.37 8.58505V17.5537C135.497 16.1497 134.816 15.2061 134.134 14.3238L129.731 8.58505H126.063V23.9676H129.838V14.692C130.742 16.0883 131.439 17.0243 132.113 17.9066L136.99 24.075H140.115V8.60039H136.363L136.37 8.58505Z" fill="#001A96"/>
</svg>
