<svg width="108" height="20" viewBox="0 0 108 20" fill="none" xmlns="http://www.w3.org/2000/svg">
<g clip-path="url(#clip0_1642_19108)">
<mask id="mask0_1642_19108" style="mask-type:luminance" maskUnits="userSpaceOnUse" x="0" y="0" width="108" height="20">
<path d="M108 0H0V20H108V0Z" fill="white"/>
</mask>
<g mask="url(#mask0_1642_19108)">
<path d="M27.2981 9.27725C26.578 8.88545 25.9801 8.30265 25.5701 7.59305C25.1479 6.86125 24.9308 6.0292 24.9418 5.1845C24.9308 4.33979 25.1479 3.50775 25.5701 2.77594C25.9776 2.05643 26.5787 1.46553 27.3052 1.07032C28.0723 0.656935 28.933 0.448023 29.8043 0.463714C30.4554 0.461735 31.1011 0.5828 31.7072 0.82054C32.2645 1.03851 32.765 1.38014 33.171 1.81965L32.5498 2.44052C32.1942 2.07919 31.7677 1.79532 31.2971 1.6068C30.8264 1.41827 30.3218 1.32916 29.815 1.34507C29.119 1.33703 28.4327 1.50912 27.8229 1.84463C27.2398 2.16454 26.7548 2.63695 26.4198 3.21126C26.0769 3.80533 25.9005 4.48083 25.9093 5.16665C25.8979 5.8573 26.0744 6.5381 26.4198 7.13635C26.7539 7.71355 27.2405 8.18765 27.8265 8.50655C28.4353 8.8448 29.122 9.01825 29.8186 9.00965C30.3267 9.0259 30.8326 8.93555 31.3036 8.74445C31.7746 8.5533 32.2004 8.2656 32.5533 7.89995L33.1745 8.5208C32.7629 8.9661 32.2549 9.3115 31.6893 9.5306C31.0812 9.77 30.4329 9.8911 29.7793 9.88745C28.9137 9.89895 28.0595 9.6889 27.2981 9.27725Z" fill="#70D78A"/>
<path d="M35.0586 0H35.9975V9.79485H35.0586V0Z" fill="#70D78A"/>
<path d="M38.6004 1.13403C38.5366 1.0726 38.486 0.998852 38.4516 0.917267C38.4172 0.835687 38.3998 0.747972 38.4004 0.659452C38.4002 0.572577 38.4179 0.486587 38.4523 0.406799C38.4867 0.327012 38.5371 0.255124 38.6004 0.19558C38.664 0.131063 38.7403 0.0803432 38.8245 0.046579C38.9086 0.0128149 38.9988 -0.00326986 39.0895 -0.00067322C39.1795 -0.00337287 39.2692 0.0119696 39.3532 0.0444496C39.4372 0.0769297 39.5138 0.12589 39.5786 0.188444C39.6412 0.246812 39.691 0.317556 39.7248 0.396183C39.7586 0.47481 39.7757 0.559602 39.7749 0.645177C39.7733 0.780457 39.7321 0.912297 39.6563 1.02441C39.5806 1.13651 39.4736 1.22398 39.3486 1.27598C39.2237 1.32799 39.0862 1.34226 38.9532 1.31703C38.8202 1.2918 38.6976 1.22818 38.6004 1.13403ZM38.6004 2.85035H39.5393V9.79416H38.6004V2.85035Z" fill="#70D78A"/>
<path d="M48.2149 6.61077H42.4027C42.4179 6.94287 42.4994 7.26857 42.6422 7.56882C42.7851 7.86902 42.9864 8.13772 43.2345 8.35917C43.7621 8.81327 44.4417 9.05157 45.1374 9.02647C45.5451 9.03177 45.9496 8.95407 46.3263 8.79808C46.686 8.64337 47.0067 8.41057 47.2652 8.11657L47.7936 8.72317C47.4839 9.09627 47.0864 9.38683 46.6369 9.56883C46.153 9.76553 45.6347 9.86377 45.1124 9.85787C44.4521 9.87142 43.7994 9.71537 43.2167 9.40468C42.6779 9.11157 42.2316 8.67417 41.9279 8.14152C41.6157 7.58642 41.4568 6.95837 41.4673 6.32172C41.4565 5.68612 41.6089 5.05832 41.91 4.49835C42.1913 3.97697 42.6114 3.5435 43.1239 3.2459C43.6523 2.94228 44.253 2.78694 44.8625 2.7963C45.4686 2.78692 46.0659 2.94232 46.5905 3.2459C47.099 3.54178 47.5155 3.97287 47.7936 4.49121C48.0907 5.05497 48.2405 5.68462 48.2291 6.32172L48.2149 6.61077ZM43.1774 4.24144C42.7188 4.68131 42.4423 5.27732 42.4027 5.91137H47.3295C47.2943 5.27697 47.0185 4.67979 46.5583 4.24144C46.0914 3.83001 45.4903 3.603 44.8679 3.603C44.2454 3.603 43.6443 3.83001 43.1774 4.24144Z" fill="#70D78A"/>
<path d="M55.7671 3.56826C56.0391 3.86491 56.2476 4.2137 56.3801 4.59341C56.5126 4.97312 56.5666 5.3758 56.5386 5.777V9.79485H55.6031V5.86975C55.6441 5.27055 55.4496 4.67893 55.0606 4.22125C54.8566 4.02442 54.6136 3.8723 54.3471 3.77461C54.0811 3.67692 53.7976 3.63581 53.5146 3.6539C53.1871 3.63562 52.8591 3.68548 52.5521 3.80034C52.2446 3.91519 51.9646 4.09254 51.7296 4.32116C51.5026 4.56844 51.3276 4.85893 51.2151 5.17525C51.1031 5.4916 51.0556 5.82735 51.0761 6.16235V9.79485H50.1406V2.85461H51.0546V4.13561C51.3106 3.71221 51.6821 3.37058 52.1256 3.15077C52.6156 2.90715 53.1566 2.78477 53.7036 2.79395C54.0821 2.77996 54.4591 2.8412 54.8131 2.97413C55.1676 3.10705 55.4916 3.30901 55.7671 3.56826Z" fill="#70D78A"/>
<path d="M62.745 9.37291C62.555 9.53721 62.3325 9.65891 62.0915 9.72971C61.8295 9.81426 61.556 9.85641 61.281 9.85461C61.007 9.87306 60.7325 9.83576 60.4735 9.74501C60.2145 9.65421 59.9765 9.51186 59.7745 9.32651C59.595 9.12686 59.457 8.89326 59.3695 8.63956C59.282 8.38581 59.246 8.11711 59.264 7.84926V3.6423H58.0215V2.85372H59.264V1.33008H60.1995V2.85372H62.313V3.64587H60.1995V7.78861C60.1745 8.13126 60.286 8.46986 60.51 8.73061C60.628 8.84386 60.768 8.93126 60.922 8.98716C61.0755 9.04306 61.239 9.06631 61.4025 9.05531C61.593 9.05526 61.7825 9.02391 61.963 8.96256C62.136 8.90641 62.296 8.81666 62.434 8.69851L62.745 9.37291Z" fill="#70D78A"/>
<path d="M74.257 0.552734V9.7945H73.3185V2.40108L69.6805 8.62055H69.216L65.5855 2.44033V9.7945H64.6465V0.552734H65.4535L69.4695 7.40375L73.4435 0.552734H74.257Z" fill="#70D78A"/>
<path d="M78.0977 9.40624C77.5662 9.10944 77.1262 8.67254 76.8267 8.14309C76.5142 7.58799 76.3552 6.95994 76.3657 6.32329C76.3557 5.68554 76.5147 5.05644 76.8267 4.49991C77.1267 3.97352 77.5667 3.54014 78.0977 3.24746C78.6542 2.95222 79.2752 2.79785 79.9057 2.79785C80.5362 2.79785 81.1572 2.95222 81.7142 3.24746C82.2442 3.53846 82.6822 3.97241 82.9777 4.49991C83.2857 5.05769 83.4422 5.68634 83.4312 6.32329C83.4422 6.95914 83.2862 7.58674 82.9777 8.14309C82.6827 8.67359 82.2447 9.11114 81.7142 9.40624C81.1577 9.70359 80.5367 9.85919 79.9057 9.85919C79.2747 9.85919 78.6537 9.70359 78.0977 9.40624ZM81.2322 8.69259C81.6242 8.46964 81.9432 8.13734 82.1497 7.73629C82.3787 7.29604 82.4927 6.80509 82.4817 6.30904C82.4927 5.81294 82.3787 5.32204 82.1497 4.88172C81.9432 4.48069 81.6242 4.14841 81.2322 3.92543C80.8252 3.70305 80.3692 3.5865 79.9057 3.5865C79.4422 3.5865 78.9862 3.70305 78.5792 3.92543C78.1867 4.15021 77.8662 4.48185 77.6547 4.88172C77.4217 5.32079 77.3052 5.81214 77.3157 6.30904C77.3052 6.80589 77.4217 7.29724 77.6547 7.73629C77.8662 8.13619 78.1867 8.46784 78.5792 8.69259C78.9867 8.91279 79.4427 9.02809 79.9057 9.02809C80.3687 9.02809 80.8247 8.91279 81.2322 8.69259Z" fill="#70D78A"/>
<path d="M90.9672 3.56804C91.2402 3.86226 91.4502 4.20876 91.5852 4.58657C91.7202 4.96439 91.7772 5.36565 91.7527 5.7661V9.7946H90.8137V5.86955C90.8552 5.27035 90.6602 4.67871 90.2712 4.22103C90.0672 4.02384 89.8247 3.87148 89.5582 3.77377C89.2922 3.67605 89.0082 3.63515 88.7252 3.65368C88.3977 3.63518 88.0696 3.68495 87.7626 3.79981C87.4551 3.91468 87.1752 4.09215 86.9402 4.32094C86.7132 4.56822 86.5382 4.85871 86.4257 5.17505C86.3137 5.4914 86.2662 5.8271 86.2867 6.16215V9.7946H85.3477V2.85439H86.2442V4.13539C86.5002 3.712 86.8717 3.37036 87.3152 3.15056C87.8047 2.90733 88.3462 2.78497 88.8932 2.79373C89.2732 2.77709 89.6527 2.83707 90.0087 2.9701C90.3652 3.10312 90.6912 3.30648 90.9672 3.56804Z" fill="#70D78A"/>
<path d="M100.365 6.61072H94.5523C94.5658 6.94322 94.6463 7.26957 94.7893 7.57007C94.9323 7.87057 95.1348 8.13902 95.3843 8.35917C95.9113 8.81417 96.5913 9.05257 97.2873 9.02642C97.6948 9.03107 98.0993 8.95337 98.4763 8.79807C98.8348 8.64317 99.1543 8.41037 99.4113 8.11652L99.9398 8.72312C99.6303 9.09622 99.2328 9.38677 98.7833 9.56877C98.2993 9.76607 97.7808 9.86432 97.2588 9.85782C96.5983 9.87137 95.9458 9.71532 95.3628 9.40467C94.8243 9.11152 94.3778 8.67412 94.0743 8.14147C93.7618 7.58637 93.6028 6.95837 93.6138 6.32167C93.6028 5.68607 93.7553 5.05827 94.0563 4.49832C94.3378 3.97693 94.7578 3.54347 95.2703 3.24586C95.7988 2.94307 96.3993 2.78779 97.0088 2.79626C97.6158 2.78731 98.2143 2.94266 98.7403 3.24586C99.2478 3.54197 99.6628 3.97309 99.9398 4.49118C100.239 5.05432 100.388 5.68442 100.375 6.32167L100.365 6.61072ZM95.3203 4.2414C94.8598 4.67975 94.5843 5.27692 94.5488 5.91132H99.4758C99.4363 5.27732 99.1598 4.68128 98.7008 4.2414C98.2343 3.82998 97.6328 3.60297 97.0103 3.60297C96.3883 3.60297 95.7868 3.82998 95.3203 4.2414Z" fill="#70D78A"/>
<path d="M108.001 2.85449L104.527 10.6297C104.323 11.1697 103.98 11.6469 103.535 12.0142C103.147 12.2913 102.68 12.4342 102.203 12.421C101.883 12.4232 101.566 12.3701 101.264 12.264C100.985 12.1563 100.733 11.9896 100.525 11.7751L100.961 11.0615C101.125 11.2309 101.322 11.3651 101.54 11.4559C101.758 11.5467 101.992 11.5922 102.228 11.5896C102.522 11.5968 102.809 11.5036 103.042 11.3255C103.317 11.0768 103.531 10.7695 103.67 10.4263L103.974 9.7519L100.868 2.85449H101.846L104.463 8.75635L107.076 2.85449H108.001Z" fill="#70D78A"/>
<path d="M28.7504 13.9375C29.1021 14.0857 29.4025 14.3339 29.6143 14.6512C29.8237 14.9815 29.9306 15.3664 29.9214 15.7573C29.9291 16.1481 29.8223 16.5325 29.6143 16.8635C29.4037 17.1819 29.103 17.4304 28.7504 17.5771C28.3304 17.7535 27.8777 17.8387 27.4223 17.8269H26.2656V19.4112H24.9375V13.6842H27.4366C27.8874 13.6755 28.3351 13.7618 28.7504 13.9375ZM28.2613 16.5031C28.364 16.4115 28.4445 16.2977 28.4964 16.1703C28.5484 16.0429 28.5705 15.9053 28.5612 15.768C28.5698 15.6288 28.5462 15.4894 28.4924 15.3607C28.4385 15.232 28.3558 15.1175 28.2506 15.0258C27.9866 14.8359 27.6647 14.7438 27.3402 14.7653H26.2691V16.7707H27.3402C27.6692 16.7927 27.9954 16.6979 28.2613 16.5031Z" fill="#70D78A"/>
<path d="M33.438 15.1109C33.7237 14.9961 34.0297 14.9403 34.3376 14.9468V16.1278C34.1948 16.1278 34.0984 16.1278 34.0485 16.1278C33.8956 16.1174 33.7421 16.1372 33.5969 16.1862C33.4517 16.2352 33.3176 16.3124 33.2023 16.4133C33.091 16.5385 33.0062 16.685 32.9528 16.8437C32.8994 17.0025 32.8787 17.1705 32.8917 17.3375V19.4213H31.5958V15.0146H32.8168V15.5962C32.9742 15.3794 33.1894 15.2112 33.438 15.1109Z" fill="#70D78A"/>
<path d="M36.7325 19.2042C36.3733 19.0205 36.0728 18.7399 35.865 18.3942C35.6591 18.0371 35.5508 17.6323 35.5508 17.2202C35.5508 16.8082 35.6591 16.4033 35.865 16.0463C36.0725 15.7013 36.3732 15.4218 36.7325 15.2399C37.1209 15.0474 37.5485 14.9473 37.982 14.9473C38.4155 14.9473 38.8432 15.0474 39.2316 15.2399C39.5897 15.4258 39.8879 15.7091 40.092 16.057C40.2978 16.414 40.4062 16.8189 40.4062 17.2309C40.4062 17.643 40.2978 18.0479 40.092 18.4049C39.886 18.7495 39.588 19.0299 39.2316 19.2149C38.8423 19.4042 38.415 19.5026 37.982 19.5026C37.5491 19.5026 37.1218 19.4042 36.7325 19.2149V19.2042ZM38.7925 18.1123C38.9952 17.8592 39.1057 17.5445 39.1057 17.2202C39.1057 16.8959 38.9952 16.5813 38.7925 16.3282C38.686 16.2218 38.5597 16.1374 38.4206 16.0798C38.2816 16.0223 38.1326 15.9926 37.982 15.9926C37.8315 15.9926 37.6825 16.0223 37.5434 16.0798C37.4044 16.1374 37.278 16.2218 37.1716 16.3282C36.9631 16.5787 36.849 16.8944 36.849 17.2202C36.849 17.5461 36.9631 17.8617 37.1716 18.1123C37.3879 18.3246 37.6789 18.4435 37.982 18.4435C38.2852 18.4435 38.5762 18.3246 38.7925 18.1123Z" fill="#70D78A"/>
<path d="M44.9304 19.215C44.7908 19.3145 44.6332 19.386 44.4663 19.4255C44.2771 19.4722 44.0828 19.4949 43.8879 19.4933C43.4447 19.5219 43.0074 19.3788 42.6669 19.0937C42.5166 18.9371 42.4009 18.7508 42.3271 18.5467C42.2533 18.3427 42.2231 18.1254 42.2385 17.909V16.0963H41.5566V15.1115H42.2385V14.041H43.5166V15.1115H44.6269V16.0963H43.5238V17.8805C43.5145 18.0379 43.567 18.1928 43.6701 18.3122C43.7235 18.3646 43.7874 18.405 43.8575 18.4308C43.9277 18.4567 44.0025 18.4673 44.0771 18.4621C44.2623 18.468 44.4438 18.41 44.5912 18.298L44.9304 19.215Z" fill="#70D78A"/>
<path d="M50.6371 17.5804H47.2922C47.3454 17.8442 47.499 18.077 47.7206 18.2298C47.9677 18.3966 48.2616 18.4803 48.5596 18.4689C48.7677 18.4718 48.9745 18.4367 49.1701 18.3654C49.3564 18.2931 49.5254 18.1824 49.6663 18.0407L50.3376 18.7793C50.1051 19.0258 49.8211 19.2177 49.5056 19.3411C49.1901 19.4645 48.8511 19.5164 48.5131 19.493C48.0562 19.502 47.6036 19.403 47.1922 19.2039C46.8259 19.0238 46.5187 18.7427 46.3068 18.3939C46.0941 18.0398 45.9853 17.633 45.9926 17.22C45.9873 16.8088 46.0947 16.4041 46.3032 16.0496C46.5035 15.7067 46.7952 15.4263 47.1458 15.2396C47.514 15.052 47.9214 14.9541 48.3346 14.9541C48.7479 14.9541 49.1553 15.052 49.5235 15.2396C49.8702 15.422 50.1566 15.7008 50.3481 16.0425C50.5541 16.4118 50.6576 16.8294 50.6481 17.2521C50.6481 17.2521 50.6516 17.3699 50.6371 17.5804ZM47.6385 16.1531C47.439 16.3251 47.3116 16.5659 47.2815 16.8275H49.4557C49.4239 16.5684 49.2966 16.3305 49.0986 16.1602C48.899 15.9929 48.6451 15.9041 48.3846 15.9104C48.1135 15.8985 47.8477 15.9875 47.6385 16.1602V16.1531Z" fill="#70D78A"/>
<path d="M53.195 19.2039C52.8285 19.0201 52.522 18.7361 52.311 18.3848C52.0995 18.0336 51.993 17.6296 52.0025 17.22C51.996 16.8071 52.1045 16.4004 52.3165 16.046C52.529 15.7009 52.833 15.4217 53.195 15.2396C53.5885 15.0397 54.0245 14.9392 54.466 14.947C54.8905 14.9365 55.31 15.0374 55.6835 15.2396C56.0225 15.4198 56.2925 15.7071 56.451 16.0567L55.4585 16.592C55.367 16.4065 55.225 16.2506 55.049 16.1426C54.8725 16.0346 54.669 15.9788 54.4625 15.9818C54.3095 15.9775 54.157 16.0043 54.0145 16.0608C53.872 16.1172 53.7425 16.202 53.634 16.3101C53.4235 16.5597 53.308 16.8757 53.308 17.2021C53.308 17.5286 53.4235 17.8445 53.634 18.0942C53.7425 18.2023 53.872 18.2871 54.0145 18.3435C54.157 18.4 54.3095 18.4268 54.4625 18.4225C54.6695 18.4284 54.8735 18.3742 55.0505 18.2666C55.227 18.1589 55.369 18.0024 55.4585 17.8159L56.451 18.3547C56.2975 18.7114 56.0315 19.0083 55.694 19.2004C55.321 19.4026 54.901 19.5035 54.4765 19.493C54.0325 19.5019 53.5925 19.4027 53.195 19.2039Z" fill="#70D78A"/>
<path d="M60.9243 19.215C60.7853 19.3152 60.6273 19.3867 60.4603 19.4255C60.2708 19.4722 60.0768 19.4949 59.8818 19.4933C59.4398 19.5225 59.0033 19.3792 58.6643 19.0937C58.5128 18.9378 58.3963 18.7517 58.3218 18.5475C58.2473 18.3433 58.2168 18.1258 58.2323 17.909V16.0963H57.5508V15.1115H58.2323V14.041H59.5143V15.1115H60.6138V16.0963H59.5143V17.8805C59.5038 18.0375 59.5553 18.1923 59.6568 18.3122C59.7108 18.364 59.7748 18.4041 59.8448 18.4299C59.9148 18.4557 59.9893 18.4666 60.0638 18.4621C60.2503 18.4679 60.4328 18.41 60.5818 18.298L60.9243 19.215Z" fill="#70D78A"/>
<path d="M14.363 10.4475C14.363 9.54762 14.1077 8.66617 13.6269 7.90542C13.1461 7.14462 12.4593 6.53567 11.6463 6.14907C10.8333 5.76252 9.92725 5.61422 9.03335 5.72137C8.1394 5.82852 7.2942 6.18677 6.59565 6.75447C5.89715 7.32222 5.37395 8.07622 5.0867 8.92907C4.79951 9.78192 4.76005 10.6987 4.97293 11.573C5.1858 12.4474 5.6423 13.2435 6.28945 13.8691C6.9366 14.4947 7.74795 14.9241 8.62935 15.1076V12.7989C8.0854 12.5736 7.6364 12.1667 7.3589 11.6476C7.0814 11.1285 6.99255 10.5293 7.1075 9.95207C7.2224 9.37482 7.53405 8.85527 7.98925 8.48192C8.4445 8.10857 9.01515 7.90452 9.604 7.90452C10.1929 7.90452 10.7635 8.10857 11.2187 8.48192C11.674 8.85527 11.9856 9.37482 12.1005 9.95207C12.2155 10.5293 12.1266 11.1285 11.8491 11.6476C11.5716 12.1667 11.1227 12.5736 10.5786 12.7989V15.1076C11.6486 14.8825 12.6085 14.2966 13.2975 13.4481C13.9865 12.5997 14.3627 11.5402 14.363 10.4475Z" fill="#70D78A"/>
<path d="M0 10.3974C0.00378376 12.9406 1.01727 15.3784 2.81789 17.1754C4.61851 18.9724 7.05905 19.9817 9.60365 19.9817C11.5813 19.9816 13.5107 19.3716 15.1285 18.2349C16.7463 17.0981 17.9738 15.4901 18.6432 13.6302H15.9157C15.1878 15.027 14.0121 16.1394 12.5769 16.7893C11.1416 17.4392 9.5296 17.5891 7.999 17.215C6.4684 16.8409 5.1076 15.9644 4.13443 14.7257C3.16124 13.4871 2.63193 11.958 2.63119 10.3831C2.63193 8.80826 3.16124 7.27916 4.13443 6.04051C5.1076 4.80191 6.4684 3.92541 7.999 3.55128C9.5296 3.17716 11.1416 3.32705 12.5769 3.97696C14.0121 4.62688 15.1878 5.73926 15.9157 7.13601H18.6432C17.971 5.27916 16.7424 3.67446 15.1249 2.54049C13.5073 1.40652 11.5794 0.798363 9.60365 0.798828C7.0566 0.798828 4.61388 1.8101 2.81285 3.61019C1.01181 5.41026 0 7.85171 0 10.3974Z" fill="#70D78A"/>
<path d="M16.6367 9.42383C16.6851 9.74633 16.7102 10.0719 16.7117 10.3979C16.7104 10.724 16.6853 11.0496 16.6367 11.3721H19.1573C19.1902 11.0484 19.2069 10.7233 19.2072 10.3979C19.2072 10.0697 19.2072 9.74498 19.1573 9.42383H16.6367Z" fill="#70D78A"/>
</g>
</g>
<defs>
<clipPath id="clip0_1642_19108">
<rect width="108" height="20" fill="white"/>
</clipPath>
</defs>
</svg>
