<svg width="36" height="36" viewBox="0 0 36 36" fill="none" xmlns="http://www.w3.org/2000/svg">
<path fill-rule="evenodd" clip-rule="evenodd" d="M21.8761 25.1775C21.876 25.3084 21.824 25.4339 21.7315 25.5265C21.6389 25.619 21.5134 25.6711 21.3825 25.6711L14.816 25.6713C14.6851 25.6712 14.5596 25.6192 14.4671 25.5266C14.3745 25.4341 14.3225 25.3086 14.3224 25.1777C14.3225 25.0468 14.3745 24.9212 14.4671 24.8287C14.5596 24.7361 14.6851 24.6841 14.816 24.684L21.3825 24.6839C21.5134 24.684 21.6389 24.736 21.7315 24.8285C21.824 24.9211 21.876 25.0466 21.8761 25.1775ZM33.9612 25.9208C34.2178 25.8289 34.3513 25.5457 34.2593 25.29C34.2152 25.1667 34.1239 25.0659 34.0055 25.0099C33.8872 24.9538 33.7514 24.947 33.628 24.991L31.8511 25.6281C33.1364 23.3005 33.8096 20.6901 33.8096 17.9999C33.8093 9.26306 26.7357 2.19021 17.9994 2.19043C14.8305 2.1905 11.7731 3.1242 9.15775 4.89165C9.10403 4.92798 9.05799 4.97454 9.02227 5.02867C8.98655 5.0828 8.96184 5.14344 8.94956 5.20713C8.93729 5.27081 8.93768 5.33629 8.95072 5.39982C8.96376 5.46335 8.98919 5.52368 9.02556 5.57738C9.17734 5.80281 9.4847 5.86221 9.7105 5.70965C12.162 4.05321 15.0281 3.17777 17.9994 3.17769C26.1724 3.17748 32.8221 9.82653 32.8224 17.9999C32.8224 20.6356 32.1334 23.1887 30.8214 25.443L30.0553 23.3034C29.963 23.0468 29.6802 22.9133 29.424 23.0057C29.363 23.0275 29.3068 23.0611 29.2588 23.1046C29.2108 23.1481 29.1718 23.2007 29.1441 23.2593C29.1164 23.3179 29.1005 23.3814 29.0974 23.4461C29.0943 23.5109 29.104 23.5756 29.1259 23.6366L30.2329 26.7264C30.3255 26.9896 30.6082 27.123 30.8713 27.0278L33.9612 25.9208ZM26.9739 30.4231C26.9377 30.3694 26.8912 30.3234 26.8371 30.2877C26.783 30.252 26.7225 30.2273 26.6589 30.2151C26.5953 30.2028 26.5299 30.2031 26.4664 30.2161C26.4029 30.2291 26.3427 30.2545 26.289 30.2908C23.8375 31.9472 20.9706 32.8227 18.0001 32.8228C9.82634 32.823 3.1765 26.1736 3.17628 18.0006C3.17621 15.3649 3.86525 12.8119 5.17766 10.5575L5.94418 12.6967C6.03648 12.9536 6.31886 13.0871 6.57547 12.9948C6.63649 12.973 6.69261 12.9394 6.74062 12.8958C6.78863 12.8523 6.82759 12.7998 6.85528 12.7412C6.88297 12.6826 6.89884 12.6191 6.90199 12.5544C6.90514 12.4897 6.8955 12.425 6.87362 12.364L5.76569 9.27415C5.67554 9.01149 5.38668 8.87635 5.12734 8.97269L2.03832 10.0798C1.78171 10.1717 1.64779 10.454 1.74017 10.7106C1.762 10.7717 1.79565 10.8278 1.83921 10.8759C1.88276 10.9239 1.93536 10.9629 1.994 10.9906C2.05263 11.0183 2.11615 11.0341 2.18092 11.0373C2.24569 11.0404 2.31044 11.0307 2.37146 11.0088L4.14756 10.3724C2.86222 12.7001 2.18894 15.3101 2.18902 18.0006C2.18923 26.7367 9.26395 33.8103 18.0001 33.8101C21.1689 33.81 24.2259 32.8759 26.8412 31.1084C26.895 31.0722 26.9411 31.0257 26.9768 30.9716C27.0126 30.9175 27.0373 30.8569 27.0497 30.7933C27.062 30.7296 27.0616 30.6642 27.0486 30.6006C27.0356 30.5371 27.0103 30.4768 26.9739 30.4231ZM22.4045 17.9087C22.4046 20.428 20.3545 22.4782 17.8348 22.4783C15.3155 22.4784 13.2652 20.4282 13.2651 17.9089C13.2651 15.3888 15.3152 13.3389 17.8345 13.3388C19.2289 13.3388 20.4786 13.9671 21.3178 14.9552L17.924 18.6432L16.053 16.6754C15.8654 16.4779 15.5527 16.4704 15.3552 16.6575C15.2605 16.7478 15.2055 16.872 15.2021 17.0028C15.1988 17.1335 15.2474 17.2603 15.3373 17.3554L17.5717 19.7062C17.7681 19.9133 18.0997 19.9101 18.2925 19.6999L21.885 15.7969C22.2269 16.4483 22.4052 17.173 22.4045 17.9087ZM24.0562 11.9805C24.1 11.9327 24.1528 11.894 24.2115 11.8667C24.2703 11.8394 24.3339 11.8239 24.3986 11.8212C24.4634 11.8185 24.5281 11.8286 24.5889 11.8509C24.6497 11.8733 24.7056 11.9074 24.7532 11.9514C24.8009 11.9952 24.8396 12.048 24.8669 12.1068C24.8942 12.1656 24.9096 12.2292 24.9123 12.2939C24.9149 12.3587 24.9048 12.4233 24.8824 12.4841C24.86 12.545 24.8259 12.6008 24.7819 12.6484L22.5878 15.0326C23.1145 15.8994 23.3926 16.8944 23.3918 17.9087C23.3919 20.9723 20.8989 23.4651 17.8348 23.4651C14.7711 23.4652 12.2779 20.9726 12.2779 17.9089C12.2778 14.8449 14.7708 12.3516 17.8345 12.3516C19.4863 12.3515 20.9713 13.0768 21.9898 14.2245L24.0562 11.9805ZM25.759 22.1001C26.8605 18.6093 26.7881 14.4474 26.6865 10.7208C23.6359 10.2158 20.5215 9.15427 17.9995 7.67323C15.4759 9.1547 12.363 10.216 9.31176 10.7213C9.21038 14.4479 9.13896 18.6098 10.2407 22.101C11.4543 25.9464 13.9936 28.4702 18.0001 29.8129C22.0064 28.4699 24.5448 25.946 25.759 22.1001ZM27.2412 9.80839C24.0932 9.34017 20.8227 8.23749 18.256 6.67596C18.1787 6.62884 18.09 6.60392 17.9994 6.60392C17.9089 6.60392 17.8201 6.62884 17.7428 6.67596C15.1921 8.23173 11.8921 9.34377 8.75693 9.80889C8.64226 9.82598 8.53727 9.88291 8.46039 9.96969C8.38351 10.0565 8.33965 10.1676 8.33652 10.2834C8.22852 14.1909 8.10677 18.6198 9.29952 22.398C10.6316 26.6185 13.4276 29.3673 17.8474 30.8019C17.9464 30.8346 18.0532 30.8346 18.1522 30.8019C22.5719 29.3671 25.3681 26.6182 26.7001 22.3976C27.8922 18.6195 27.7698 14.1905 27.6616 10.2831C27.6588 10.1671 27.615 10.0558 27.5381 9.96899C27.4611 9.88213 27.356 9.82525 27.2412 9.80839Z" fill="#002F57"/>
</svg>
