<svg width="194" height="50" viewBox="0 0 194 50" fill="none" xmlns="http://www.w3.org/2000/svg">
<path d="M21.7569 0.00168228C32.417 0.00168228 38.9505 5.2005 38.9505 13.6812C38.9505 24.4779 25.1563 30.2259 14.694 25.5423L14.6839 24.8728C14.6839 24.8728 28.4015 27.3867 32.1647 17.2415C32.5347 16.2436 32.7481 14.5351 32.6985 12.9695C32.4893 6.46337 28.5492 2.12622 21.4567 2.12622H11.844V44.4222C11.8984 46.8895 14.2661 48.8763 17.1849 48.8763H18.2398L18.2524 49.584H0L0.0139418 48.8763H1.0688C3.98677 48.8763 6.3553 46.8895 6.41238 44.4222V4.78558C6.1418 2.49338 3.86825 0.704182 1.09756 0.704182H0.0426996L0.0300626 0.000202179L21.7569 0.00168228Z" fill="white"/>
<path d="M49.8822 19.6287C48.8352 19.6287 47.8117 19.8101 46.841 20.1676C45.8741 20.5248 44.9853 21.0489 44.1992 21.7277C43.4158 22.4043 42.7583 23.2326 42.2459 24.1913C41.7318 25.148 41.4081 26.2566 41.283 27.4854C41.2717 27.5953 41.3153 27.7038 41.4028 27.7852C41.4904 27.8663 41.6142 27.9125 41.7444 27.9125H57.0793C57.2061 27.9125 57.3268 27.8689 57.414 27.7911C57.5015 27.7134 57.5482 27.6083 57.5421 27.5013C57.4423 25.6281 57.1791 24.333 56.7386 23.5409C56.1051 22.3354 55.1409 21.3687 53.8764 20.6747C52.6124 19.9807 51.2682 19.6287 49.8822 19.6287ZM51.0752 47.3105C49.1755 47.3105 47.3608 46.976 45.6824 46.3168C43.9993 45.6564 42.5048 44.7063 41.2408 43.4945C39.9724 42.2787 38.9493 40.7804 38.2012 39.043C37.4522 37.3019 37.0723 35.3166 37.0723 33.1413C37.0723 30.7588 37.4583 28.6169 38.2204 26.7736C38.9803 24.9363 40.0391 23.3633 41.3671 22.0975C42.6886 20.8361 44.2694 19.8671 46.0667 19.2167C47.8697 18.565 49.8352 18.2344 51.9074 18.2344C53.6681 18.2344 55.3191 18.498 56.8136 19.0191C58.2998 19.538 59.6034 20.2872 60.687 21.2473C61.772 22.2081 62.6334 23.3785 63.2473 24.7268C63.8146 25.9719 64.1248 27.3762 64.1693 28.9074H41.7444C41.4882 28.9074 41.2813 29.0829 41.2813 29.3005C41.2813 31.4228 41.6176 33.3556 42.2821 35.0475C42.9474 36.7449 43.8633 38.208 45.0023 39.3957C46.1486 40.592 47.4963 41.5169 49.0095 42.1436C50.5258 42.7713 52.1453 43.0892 53.8241 43.0892C56.0846 43.0892 58.0819 42.5514 59.7607 41.4907C61.328 40.4998 62.666 38.8424 63.7431 36.5602L64.1292 36.7715C63.8599 38.0166 63.3802 39.2595 62.7013 40.4684C61.9789 41.7553 61.0387 42.9194 59.9089 43.9302C58.7817 44.9362 57.451 45.7612 55.9539 46.3823C54.4699 46.9985 52.829 47.3105 51.0752 47.3105Z" fill="white"/>
<path d="M81.6446 47.3105L69.9375 23.8023C69.5689 23.0498 69.2133 22.4195 68.8813 21.9302C68.5314 21.4135 68.121 20.9808 67.6604 20.6458C67.1947 20.3068 66.6439 20.044 66.0248 19.8648C65.525 19.7205 64.9085 19.598 64.1878 19.4988V19.0953H78.8487V19.4444H78.2997C77.2435 19.4444 76.4135 19.6764 75.8322 20.1332C75.2427 20.5973 74.9429 21.2221 74.9429 21.989C74.9429 22.757 75.2113 23.6679 75.7412 24.6961L83.442 40.2381C83.5143 40.384 83.6829 40.4787 83.869 40.4787H83.8716C84.0589 40.478 84.2275 40.381 84.2981 40.2333L92.0381 24.1035C92.6207 22.8762 92.9039 21.9738 92.9039 21.3435C92.9039 20.5881 92.4982 20.0484 91.7296 19.7812C91.1484 19.5798 90.2874 19.4707 89.1067 19.4481V19.0953H98.9938V19.4858C98.366 19.5558 97.8279 19.6642 97.39 19.8093C96.8336 19.9933 96.3569 20.2646 95.9722 20.6151C95.6066 20.9464 95.2777 21.3535 94.994 21.8247C94.7226 22.2766 94.4372 22.8085 94.1465 23.4051L82.5104 47.3105H81.6446Z" fill="white"/>
<path d="M110.869 19.4751C109.748 19.4751 108.655 19.6787 107.621 20.0791C106.579 20.4837 105.644 21.1436 104.84 22.0423C104.05 22.9284 103.409 24.0776 102.938 25.4578C102.47 26.8299 102.232 28.5155 102.232 30.4683C102.232 32.4769 102.486 34.429 102.986 36.2715C103.487 38.1214 104.208 39.7733 105.13 41.1816C106.061 42.607 107.211 43.7595 108.548 44.609C109.914 45.4769 111.462 45.9163 113.148 45.9163C114.369 45.9163 115.51 45.7131 116.541 45.3119C117.586 44.9066 118.506 44.2433 119.274 43.3409C120.028 42.4556 120.625 41.2778 121.047 39.8421C121.464 38.4249 121.676 36.6664 121.676 34.6155C121.676 32.5691 121.442 30.6182 120.978 28.8175C120.513 27.0076 119.822 25.3949 118.923 24.0247C118.012 22.6371 116.87 21.5234 115.531 20.7158C114.166 19.8926 112.598 19.4751 110.869 19.4751ZM111.593 47.3105C109.34 47.3105 107.263 46.9112 105.417 46.1239C103.564 45.3315 101.951 44.2625 100.624 42.9467C99.2925 41.6272 98.2503 40.0919 97.5253 38.3842C96.7998 36.6734 96.4312 34.8787 96.4312 33.0495C96.4312 31.1985 96.812 29.3616 97.5619 27.5909C98.3109 25.8209 99.3849 24.2227 100.753 22.8418C102.118 21.4645 103.773 20.3445 105.675 19.5121C107.565 18.6849 109.689 18.2651 111.99 18.2651C114.249 18.2651 116.348 18.6456 118.231 19.3959C120.119 20.1484 121.768 21.1721 123.133 22.4387C124.496 23.7079 125.573 25.2058 126.332 26.8913C127.091 28.5802 127.477 30.3824 127.477 32.2501C127.477 34.2206 127.079 36.1338 126.294 37.9352C125.508 39.7377 124.398 41.357 122.995 42.7476C121.594 44.1349 119.903 45.2552 117.968 46.0762C116.04 46.8956 113.894 47.3105 111.593 47.3105Z" fill="white"/>
<path d="M147.592 46.4492V46.1302H147.816C148.96 46.1302 149.838 46.0439 150.505 45.8674C151.22 45.676 151.771 45.3385 152.143 44.8643C152.497 44.4139 152.722 43.8121 152.815 43.0751C152.901 42.3834 152.945 41.511 152.945 40.4835V28.9622C152.945 26.308 152.54 24.4203 151.708 23.1897C150.838 21.9068 149.37 21.2568 147.346 21.2568C144.353 21.2568 141.355 22.6441 138.431 25.3793C138.354 25.4519 138.311 25.5463 138.311 25.644V40.4835C138.311 43.0663 138.562 43.8306 138.751 44.1803C138.936 44.516 139.142 44.8103 139.367 45.0564C139.616 45.3314 139.956 45.552 140.375 45.7112C140.769 45.8626 141.261 45.9688 141.88 46.0358C142.367 46.0887 142.966 46.1183 143.7 46.1279V46.4492H128.243V46.1302H128.502C129.419 46.1302 130.189 46.0406 130.789 45.8637C131.437 45.6712 131.959 45.3311 132.341 44.8506C132.703 44.3954 132.953 43.7991 133.083 43.0774C133.207 42.3956 133.27 41.5232 133.27 40.4835V30.037C133.27 26.6407 133.172 24.5939 132.971 23.7815C132.781 22.9524 132.463 22.3857 132.002 22.0552C131.542 21.7295 130.938 21.5644 130.203 21.5644C129.578 21.5644 128.851 21.6832 128.037 21.9201L127.844 21.5274L137.309 18.2647H138.311V23.8318C138.311 23.9976 138.433 24.145 138.616 24.2023C138.669 24.2176 138.721 24.2253 138.774 24.2253C138.909 24.2253 139.041 24.1749 139.13 24.0828C142.902 20.2223 146.517 18.2647 149.877 18.2647C151.042 18.2647 152.128 18.4313 153.106 18.7596C154.063 19.0809 154.911 19.6298 155.627 20.3908C156.355 21.1632 156.935 22.2107 157.351 23.505C157.772 24.8171 157.986 26.4879 157.986 28.471V40.4835C157.986 41.7316 158.066 42.6902 158.229 43.4157C158.401 44.1803 158.713 44.7766 159.156 45.1889C159.612 45.6112 160.224 45.8796 160.977 45.9866C161.544 46.0672 162.24 46.1143 163.049 46.1265V46.4492H147.592Z" fill="white"/>
<path d="M182.143 29.6756C182.085 29.6756 182.027 29.6844 181.972 29.703C180.099 30.3318 178.621 30.8459 177.455 31.2749C176.258 31.7161 175.407 32.0651 174.854 32.3416C172.907 33.2839 171.482 34.2781 170.626 35.2934C169.753 36.3301 169.31 37.4875 169.31 38.7337C169.31 39.515 169.46 40.249 169.755 40.9145C170.05 41.5796 170.456 42.1674 170.961 42.6626C171.468 43.1608 172.072 43.555 172.755 43.8341C173.44 44.1154 174.165 44.2571 174.908 44.2571C176.869 44.2571 179.33 43.2237 182.434 41.0984C182.542 41.0229 182.606 40.9108 182.606 40.7916V30.069C182.606 29.9384 182.53 29.8169 182.403 29.744C182.326 29.6985 182.234 29.6756 182.143 29.6756ZM171.582 47.0342C170.517 47.0342 169.519 46.8691 168.616 46.543C167.716 46.218 166.929 45.7535 166.278 45.1621C165.623 44.5669 165.101 43.8407 164.728 43.0024C164.351 42.1603 164.16 41.2106 164.16 40.1768C164.16 39.4214 164.281 38.7174 164.519 38.0849C164.756 37.4508 165.117 36.842 165.594 36.2731C166.075 35.699 166.698 35.1398 167.446 34.6123C168.205 34.0767 169.116 33.5408 170.153 33.0197C172.603 31.7875 176.69 30.2889 182.3 28.5648C182.484 28.5089 182.606 28.3612 182.606 28.195V27.0891C182.606 25.6534 182.461 24.432 182.176 23.4604C181.883 22.4684 181.453 21.659 180.898 21.0557C180.326 20.4346 179.606 19.9889 178.755 19.7291C177.936 19.48 177.008 19.3531 175.994 19.3531C175.169 19.3531 174.415 19.4593 173.753 19.6692C173.088 19.8805 172.512 20.1618 172.039 20.5075C171.556 20.8621 171.182 21.2785 170.926 21.7459C170.669 22.2164 170.539 22.7012 170.539 23.1876L170.612 24.9831C170.612 25.8033 170.369 26.4466 169.888 26.8807C169.408 27.3141 168.791 27.5247 168.001 27.5247C167.239 27.5247 166.635 27.306 166.157 26.8563C165.666 26.3944 165.426 25.767 165.426 24.9387C165.426 24.1499 165.681 23.3553 166.182 22.5776C166.693 21.7889 167.443 21.0649 168.412 20.4253C169.388 19.782 170.617 19.2557 172.066 18.8619C173.521 18.4662 175.208 18.2656 177.079 18.2656C179.56 18.2656 181.691 18.5754 183.41 19.1873C185.095 19.7869 186.28 20.7951 187.035 22.2686C187.439 23.111 187.647 24.8802 187.647 27.5196V37.074C187.647 38.4539 187.665 39.5235 187.702 40.3452C187.737 41.1691 187.781 41.7502 187.832 42.0722C187.975 42.7799 188.22 43.2474 188.584 43.5157C188.946 43.783 189.37 43.9192 189.846 43.9192C190.134 43.9192 190.414 43.8814 190.678 43.8078C190.946 43.7319 191.238 43.5927 191.57 43.3803C191.877 43.1845 192.232 42.9198 192.627 42.5941C192.83 42.4278 193.062 42.2346 193.325 42.0145V42.6563C190.739 45.5407 188.291 47.0035 186.049 47.0035C185.021 47.0035 184.212 46.7055 183.574 46.0922C182.932 45.4734 182.606 44.3619 182.606 42.7888C182.606 42.6378 182.505 42.5009 182.346 42.435C182.281 42.408 182.212 42.395 182.143 42.395C182.041 42.395 181.941 42.4235 181.858 42.4783C178.503 44.7009 176.382 45.9867 175.552 46.3002C174.332 46.788 173 47.0342 171.582 47.0342Z" fill="white"/>
</svg>
