<svg width="36" height="36" viewBox="0 0 36 36" fill="none" xmlns="http://www.w3.org/2000/svg">
<g clip-path="url(#clip0_1654_3503)">
<path d="M25.6746 23.4639L20.237 26.631C20.029 26.7521 19.8182 26.8454 19.601 26.9114C19.6698 26.7724 19.7246 26.6269 19.7643 26.4769C20.0532 25.3984 19.4135 24.2726 18.3079 23.9143C18.2838 23.9065 18.2592 23.9003 18.2342 23.8958C16.6783 23.6152 15.1395 23.0588 13.9031 22.6119C13.4717 22.4559 13.0642 22.3086 12.7171 22.196C11.295 21.7347 10.0171 22.3015 8.95426 22.9167L4.97879 25.2184L4.63722 24.6149C4.26695 23.9608 3.43354 23.7298 2.77956 24.1L1.25399 24.9634C0.599872 25.3335 0.368825 26.1669 0.739091 26.8211L5.2244 34.7464C5.40334 35.0625 5.69535 35.2902 6.04684 35.3876C6.16841 35.4213 6.29174 35.438 6.41443 35.438C6.6464 35.438 6.87533 35.3783 7.08205 35.2613L8.60769 34.3978C9.26181 34.0275 9.49279 33.1942 9.12252 32.5402L8.69917 31.7921L9.52394 31.316L16.4563 33.1734C16.8475 33.2783 17.2369 33.3304 17.6198 33.3304C18.3944 33.3304 19.1428 33.117 19.827 32.6959L29.6948 26.6197C30.6296 26.0441 30.9277 24.5963 30.3203 23.582C30.0261 23.0909 28.8216 21.6311 25.6746 23.4639ZM8.05356 33.4188L6.52792 34.2823C6.41577 34.3458 6.26706 34.3047 6.20343 34.1923L1.71819 26.2671C1.65463 26.1547 1.69576 26.0061 1.80805 25.9426L3.33369 25.0791C3.36876 25.0594 3.40834 25.0491 3.44858 25.0492C3.53233 25.0492 3.61494 25.0927 3.65818 25.1691L8.14349 33.0944C8.20705 33.2066 8.16592 33.3552 8.05356 33.4188ZM29.105 25.6617L19.2373 31.7379C18.4741 32.2077 17.6363 32.325 16.7475 32.0868L9.5901 30.1689C9.51875 30.1498 9.44434 30.1449 9.37111 30.1546C9.29788 30.1642 9.22727 30.1882 9.1633 30.2251L8.14511 30.8129L5.53307 26.1975L9.51817 23.8903C10.409 23.3745 11.3713 22.9421 12.3702 23.2661C12.6997 23.3729 13.0801 23.5105 13.5207 23.6697C14.7863 24.1272 16.3587 24.6957 17.9934 24.9953C18.518 25.1816 18.8112 25.6876 18.6777 26.1857C18.5019 26.8419 17.9501 26.9233 17.51 26.8734C16.7139 26.7094 15.9558 26.493 15.1536 26.264C14.7714 26.1548 14.3761 26.042 13.9696 25.933C13.8255 25.8944 13.6719 25.9146 13.5427 25.9892C13.4135 26.0638 13.3193 26.1867 13.2807 26.3308C13.2421 26.4749 13.2623 26.6284 13.3369 26.7576C13.4115 26.8868 13.5343 26.9811 13.6784 27.0197C14.076 27.1262 14.4668 27.2378 14.8447 27.3457C15.6761 27.5832 16.4615 27.8075 17.3086 27.9806C17.3122 27.9814 17.3158 27.9816 17.3195 27.9823C17.3233 27.983 17.3271 27.9842 17.3309 27.9848L18.0073 28.0947C19.0379 28.2595 19.9523 28.0987 20.8033 27.6031L26.2408 24.436C27.7633 23.5493 28.9275 23.4461 29.3551 24.16C29.6472 24.6478 29.521 25.4057 29.105 25.6617ZM3.73693 26.5401C3.74753 26.611 3.74402 26.6833 3.72662 26.7528C3.70922 26.8223 3.67827 26.8877 3.63554 26.9453C3.59282 27.0028 3.53915 27.0514 3.47762 27.0882C3.41609 27.1249 3.34791 27.1492 3.27699 27.1596C3.20607 27.1699 3.13379 27.1662 3.06431 27.1486C2.99484 27.131 2.92952 27.0998 2.8721 27.0569C2.81469 27.014 2.76631 26.9602 2.72974 26.8985C2.69316 26.8369 2.66912 26.7686 2.65897 26.6977C2.63857 26.5549 2.67558 26.41 2.76189 26.2945C2.8482 26.179 2.97677 26.1024 3.11942 26.0816C3.26207 26.0607 3.40717 26.0973 3.52292 26.1832C3.63867 26.2692 3.71563 26.3975 3.73693 26.5401ZM16.1275 8.14662C15.8632 8.14609 15.6055 8.22953 15.3917 8.3849C15.1779 8.54028 15.0189 8.75955 14.9377 9.01111C14.8554 9.26274 14.8552 9.53405 14.9373 9.78577C15.0193 10.0375 15.1793 10.2566 15.3941 10.4114L17.5357 11.9611C17.5844 11.9964 17.6004 12.0453 17.5816 12.1025L16.7598 14.6152C16.677 14.8666 16.6764 15.1379 16.758 15.3897C16.8396 15.6416 16.9992 15.861 17.2137 16.0161C17.4272 16.1719 17.6847 16.2558 17.9491 16.2559C18.2075 16.2559 18.466 16.1755 18.6864 16.0147L20.822 14.4568C20.8707 14.4213 20.9222 14.4214 20.9707 14.4568L23.1063 16.0147C23.3199 16.1712 23.5777 16.2557 23.8425 16.2559C24.1072 16.2562 24.3652 16.1722 24.5791 16.0161C24.7936 15.8608 24.9531 15.6415 25.0347 15.3896C25.1162 15.1377 25.1155 14.8665 25.0328 14.615L24.211 12.1025C24.1923 12.0453 24.2082 11.9964 24.2569 11.9611L26.3985 10.4115C26.6133 10.2567 26.7734 10.0376 26.8554 9.78586C26.9375 9.53413 26.9373 9.26282 26.855 9.01118C26.7738 8.75962 26.6148 8.54035 26.401 8.38497C26.1871 8.2296 25.9295 8.14616 25.6652 8.14669H25.6627L23.0192 8.15175H23.0188C22.9588 8.15175 22.9174 8.12159 22.8989 8.06435L22.0868 5.54871C22.006 5.29657 21.8471 5.07668 21.633 4.92085C21.4189 4.76502 21.1608 4.68133 20.8961 4.6819C20.6313 4.68141 20.3733 4.76513 20.1593 4.92095C19.9452 5.07677 19.7863 5.29662 19.7055 5.54871L18.8935 8.06435C18.8749 8.12152 18.8335 8.15175 18.7735 8.15175H18.7731L16.1297 8.14669L16.1275 8.14662ZM18.7738 9.27675C19.3186 9.27675 19.7969 8.9287 19.9644 8.41001L20.7765 5.89437C20.795 5.8372 20.8365 5.8069 20.8965 5.8069C20.9565 5.8069 20.998 5.83706 21.0165 5.89423L21.8286 8.40987C21.9093 8.66206 22.0682 8.88201 22.2823 9.03788C22.4963 9.19374 22.7544 9.27743 23.0192 9.27682H23.0217L25.6652 9.27176H25.6656C25.7255 9.27176 25.7668 9.30192 25.7854 9.35894C25.804 9.41604 25.7881 9.46484 25.7394 9.50006L23.5979 11.0497C23.3827 11.2047 23.2224 11.4242 23.1405 11.6765C23.0585 11.9287 23.0591 12.2005 23.1421 12.4523L23.9638 14.9647C23.9826 15.0218 23.9667 15.0707 23.9182 15.106C23.8697 15.1414 23.8182 15.1412 23.7697 15.1059L21.6341 13.548C21.4202 13.3913 21.1619 13.3068 20.8967 13.3068C20.6315 13.3068 20.3732 13.3913 20.1593 13.548L18.0237 15.1059C17.9752 15.1414 17.9237 15.1413 17.8752 15.106C17.8266 15.0707 17.8108 15.0218 17.8295 14.9648L18.6512 12.4523C18.7342 12.2005 18.7348 11.9287 18.6528 11.6765C18.5709 11.4243 18.4107 11.2048 18.1956 11.0498L16.054 9.50006C16.0053 9.46491 15.9894 9.41604 16.008 9.3588C16.0266 9.30178 16.068 9.27169 16.1278 9.27169H16.1282L18.7716 9.27675H18.7738ZM20.3339 3.18459V1.125C20.3339 0.975816 20.3932 0.832742 20.4987 0.727252C20.6042 0.621763 20.7472 0.5625 20.8964 0.5625C21.0456 0.5625 21.1887 0.621763 21.2942 0.727252C21.3997 0.832742 21.4589 0.975816 21.4589 1.125V3.18459C21.4589 3.33378 21.3997 3.47685 21.2942 3.58234C21.1887 3.68783 21.0456 3.74709 20.8964 3.74709C20.7472 3.74709 20.6042 3.68783 20.4987 3.58234C20.3932 3.47685 20.3339 3.33378 20.3339 3.18459ZM25.65 5.71605C25.5445 5.61057 25.4852 5.4675 25.4852 5.31833C25.4852 5.16916 25.5445 5.0261 25.65 4.92061L27.1063 3.46423C27.1585 3.41147 27.2205 3.36954 27.2889 3.34085C27.3573 3.31215 27.4306 3.29727 27.5048 3.29704C27.5789 3.29681 27.6524 3.31125 27.721 3.33952C27.7895 3.36779 27.8518 3.40934 27.9043 3.46177C27.9567 3.5142 27.9982 3.57649 28.0265 3.64504C28.0548 3.71359 28.0692 3.78706 28.069 3.86122C28.0688 3.93537 28.0539 4.00875 28.0252 4.07714C27.9965 4.14552 27.9546 4.20755 27.9019 4.25967L26.4455 5.71605C26.3933 5.76836 26.3313 5.80984 26.263 5.83811C26.1948 5.86639 26.1216 5.88089 26.0477 5.8808C25.9738 5.88091 25.9007 5.86642 25.8324 5.83815C25.7641 5.80987 25.7021 5.76838 25.65 5.71605ZM13.8911 4.25974C13.8384 4.20762 13.7964 4.14559 13.7678 4.07721C13.7391 4.00882 13.7242 3.93544 13.724 3.86129C13.7237 3.78713 13.7382 3.71366 13.7665 3.64511C13.7947 3.57656 13.8363 3.51427 13.8887 3.46184C13.9412 3.40941 14.0035 3.36786 14.072 3.33959C14.1406 3.31132 14.214 3.29688 14.2882 3.29711C14.3623 3.29734 14.4357 3.31222 14.5041 3.34092C14.5725 3.36961 14.6345 3.41154 14.6866 3.4643L16.143 4.92068C16.1958 4.9728 16.2377 5.03483 16.2664 5.10322C16.2951 5.1716 16.3099 5.24498 16.3102 5.31913C16.3104 5.39329 16.2959 5.46676 16.2677 5.53531C16.2394 5.60386 16.1978 5.66615 16.1454 5.71858C16.093 5.77102 16.0307 5.81256 15.9621 5.84084C15.8936 5.86911 15.8201 5.88354 15.7459 5.88331C15.6718 5.88309 15.5984 5.8682 15.53 5.8395C15.4616 5.81081 15.3996 5.76888 15.3475 5.71613L13.8911 4.25974ZM35.3832 14.143C35.3122 13.9227 35.173 13.7307 34.9858 13.5947C34.7986 13.4586 34.5731 13.3856 34.3416 13.386H34.3393L32.3151 13.3899L31.6933 11.4635C31.6226 11.2428 31.4834 11.0503 31.296 10.9138C31.1086 10.7774 30.8826 10.7042 30.6508 10.7047C30.419 10.7042 30.1931 10.7775 30.0057 10.9139C29.8183 11.0503 29.6792 11.2428 29.6084 11.4635L28.9866 13.3899L26.9624 13.386H26.9602C26.7287 13.3856 26.5031 13.4586 26.3159 13.5947C26.1287 13.7307 25.9895 13.9227 25.9185 14.143C25.8464 14.3633 25.8463 14.6008 25.9182 14.8212C25.99 15.0416 26.1301 15.2334 26.3181 15.3689L27.958 16.5556L27.3289 18.4795C27.2564 18.6996 27.2558 18.9372 27.3272 19.1577C27.3986 19.3782 27.5383 19.5703 27.7261 19.7062C27.9131 19.8426 28.1386 19.9161 28.37 19.9162C28.5963 19.9162 28.8227 19.8458 29.0156 19.705L30.6509 18.5121L32.2863 19.705C32.4733 19.842 32.6991 19.916 32.9309 19.9162C33.1627 19.9164 33.3886 19.8429 33.5758 19.7062C33.7636 19.5703 33.9033 19.3782 33.9747 19.1577C34.0461 18.9372 34.0455 18.6997 33.973 18.4795L33.3438 16.5556L34.9837 15.369C35.1717 15.2334 35.3118 15.0416 35.3836 14.8212C35.4554 14.6008 35.4553 14.3633 35.3832 14.143ZM32.6668 15.6568C32.4783 15.7924 32.338 15.9846 32.2662 16.2054C32.1945 16.4263 32.195 16.6642 32.2677 16.8848L32.8751 18.7421L31.2964 17.5905C31.1092 17.4532 30.883 17.3792 30.6508 17.3792C30.4187 17.3792 30.1925 17.4532 30.0053 17.5905L28.4265 18.7421L29.034 16.8847C29.1066 16.6642 29.1071 16.4263 29.0354 16.2055C28.9636 15.9847 28.8233 15.7925 28.6349 15.6568L27.0517 14.5112L29.0059 14.515H29.008C29.485 14.515 29.9038 14.2102 30.0505 13.7561L30.6508 11.8964L31.2511 13.7561C31.3218 13.9769 31.4609 14.1694 31.6483 14.3059C31.8357 14.4423 32.0617 14.5155 32.2935 14.515H32.2956L34.2498 14.5113L32.6668 15.6568ZM6.77458 15.3689L8.41447 16.5556L7.78532 18.4795C7.71279 18.6996 7.71218 18.9372 7.78359 19.1577C7.85499 19.3782 7.99471 19.5703 8.18251 19.7062C8.36952 19.8426 8.59498 19.9161 8.82644 19.9162C9.05277 19.9162 9.27904 19.8458 9.47197 19.705L11.1074 18.5121L12.7428 19.705C12.9298 19.842 13.1555 19.916 13.3873 19.9162C13.6191 19.9164 13.845 19.8429 14.0322 19.7062C14.22 19.5703 14.3597 19.3782 14.4311 19.1577C14.5025 18.9372 14.5019 18.6997 14.4294 18.4795L13.8003 16.5556L15.4401 15.369C15.6282 15.2335 15.7683 15.0416 15.8401 14.8212C15.912 14.6008 15.9119 14.3633 15.8398 14.1429C15.7687 13.9227 15.6296 13.7308 15.4424 13.5948C15.2552 13.4587 15.0296 13.3857 14.7982 13.3861H14.7959L12.7717 13.39L12.1499 11.4636C12.0791 11.2429 11.94 11.0503 11.7526 10.9139C11.5651 10.7775 11.3392 10.7042 11.1074 10.7047C10.8756 10.7043 10.6497 10.7775 10.4623 10.914C10.2749 11.0504 10.1358 11.2429 10.065 11.4636L9.44315 13.39L7.41906 13.3861H7.41681C7.18537 13.3856 6.95976 13.4587 6.77253 13.5948C6.5853 13.7308 6.44612 13.9228 6.37506 14.1431C6.30295 14.3634 6.3028 14.6009 6.37462 14.8212C6.44644 15.0416 6.58652 15.2334 6.77458 15.3689ZM9.46241 14.515H9.46452C9.69634 14.5155 9.92231 14.4423 10.1097 14.3058C10.2971 14.1694 10.4363 13.9769 10.507 13.7561L11.1073 11.8964L11.7076 13.7561C11.7783 13.9769 11.9174 14.1694 12.1048 14.3059C12.2922 14.4423 12.5182 14.5155 12.75 14.515H12.7521L14.7063 14.5113L13.1231 15.6569C12.9347 15.7926 12.7944 15.9848 12.7227 16.2056C12.6509 16.4264 12.6514 16.6643 12.7241 16.8848L13.3316 18.7422L11.7528 17.5906C11.5598 17.4497 11.3335 17.3793 11.1072 17.3793C10.881 17.3793 10.6547 17.4497 10.4616 17.5906L8.8829 18.7422L9.49032 16.8848C9.56298 16.6643 9.56347 16.4264 9.49172 16.2056C9.41996 15.9848 9.27971 15.7926 9.0913 15.657L7.50808 14.5114L9.46241 14.515Z" fill="#002F57"/>
</g>
<defs>
<clipPath id="clip0_1654_3503">
<rect width="36" height="36" fill="white"/>
</clipPath>
</defs>
</svg>
