<svg width="36" height="36" viewBox="0 0 36 36" fill="none" xmlns="http://www.w3.org/2000/svg">
<g clip-path="url(#clip0_1654_3536)">
<path d="M34.698 14.8787C34.3062 14.6648 33.863 14.5631 33.4171 14.5847C32.9713 14.6063 32.54 14.7505 32.1707 15.0013L24.0145 20.439C23.8221 19.8918 23.4649 19.4177 22.9921 19.0816C22.5194 18.7456 21.9541 18.5643 21.3741 18.5625H9.5616C9.41243 18.5625 9.26938 18.6218 9.16391 18.7273L5.6241 22.2671L4.89679 21.5398C4.7913 21.4344 4.64825 21.3751 4.4991 21.3751C4.34994 21.3751 4.2069 21.4344 4.10141 21.5398L1.28891 24.3523C1.18346 24.4578 1.12422 24.6008 1.12422 24.75C1.12422 24.8992 1.18346 25.0422 1.28891 25.1477L2.01622 25.875L0.163912 27.7273C0.110188 27.7792 0.0673351 27.8413 0.0378551 27.9099C0.00837502 27.9785 -0.00714224 28.0523 -0.00779126 28.127C-0.00844028 28.2017 0.00579193 28.2758 0.0340749 28.3449C0.0623579 28.414 0.104125 28.4768 0.15694 28.5297C0.209755 28.5825 0.272559 28.6242 0.341688 28.6525C0.410817 28.6808 0.484887 28.695 0.559575 28.6944C0.634264 28.6937 0.708075 28.6782 0.776702 28.6487C0.845329 28.6193 0.907398 28.5764 0.959287 28.5227L2.8116 26.6704L9.32873 33.1875L7.47641 35.0398C7.42269 35.0917 7.37983 35.1538 7.35035 35.2224C7.32087 35.291 7.30536 35.3648 7.30471 35.4395C7.30406 35.5142 7.31829 35.5883 7.34657 35.6574C7.37486 35.7265 7.41663 35.7893 7.46944 35.8422C7.52225 35.895 7.58506 35.9367 7.65419 35.965C7.72332 35.9933 7.79739 36.0075 7.87208 36.0069C7.94676 36.0062 8.02057 35.9907 8.0892 35.9612C8.15783 35.9318 8.2199 35.8889 8.27179 35.8352L10.1241 33.9829L10.8514 34.7102C10.9569 34.8156 11.0999 34.8749 11.2491 34.8749C11.3983 34.8749 11.5413 34.8156 11.6468 34.7102L14.4593 31.8977C14.5647 31.7922 14.624 31.6492 14.624 31.5C14.624 31.3508 14.5647 31.2078 14.4593 31.1023L13.732 30.375L15.4195 28.6875H21.9366C22.0583 28.6876 22.1768 28.6481 22.2741 28.575L35.0147 19.0198C35.3197 18.7897 35.5673 18.4921 35.7381 18.1504C35.9088 17.8086 35.9982 17.432 35.9991 17.0499C36.003 16.6034 35.8836 16.1644 35.654 15.7813C35.4245 15.3982 35.0937 15.0859 34.698 14.8787ZM11.2491 33.5171L2.48197 24.75L4.4991 22.7329L13.2662 31.5L11.2491 33.5171ZM34.3397 18.1198L21.7493 27.5625H15.1866C15.0374 27.5625 14.8944 27.6218 14.7889 27.7273L12.9366 29.5796L6.41947 23.0625L9.79447 19.6875H21.3741C21.8217 19.6875 22.2509 19.8653 22.5673 20.1818C22.8838 20.4982 23.0616 20.9274 23.0616 21.375C23.0616 21.8226 22.8838 22.2518 22.5673 22.5682C22.2509 22.8847 21.8217 23.0625 21.3741 23.0625H14.0616C13.9124 23.0625 13.7693 23.1218 13.6639 23.2273C13.5584 23.3327 13.4991 23.4758 13.4991 23.625C13.4991 23.7742 13.5584 23.9173 13.6639 24.0227C13.7693 24.1282 13.9124 24.1875 14.0616 24.1875H21.3741C22.062 24.1853 22.7252 23.9305 23.2377 23.4716C23.7502 23.0126 24.0762 22.3814 24.154 21.6979L32.7951 15.9373C32.9965 15.803 33.2305 15.7259 33.4723 15.7141C33.7141 15.7024 33.9545 15.7566 34.1679 15.8708C34.3814 15.985 34.5598 16.155 34.6841 16.3627C34.8085 16.5703 34.8742 16.8079 34.8741 17.0499C34.8736 17.2574 34.8251 17.4619 34.7324 17.6475C34.6397 17.8331 34.5053 17.9948 34.3397 18.1198ZM11.8903 17.4375C11.9865 17.4375 12.0811 17.4127 12.165 17.3657C12.2489 17.3188 12.3193 17.251 12.3696 17.1691C12.4199 17.0871 12.4483 16.9936 12.4521 16.8975C12.456 16.8014 12.4351 16.7059 12.3915 16.6202C11.6347 15.131 11.2431 13.483 11.2491 11.8125C11.2491 8.978 12.3751 6.25959 14.3794 4.2553C16.3837 2.251 19.1021 1.125 21.9366 1.125C24.7711 1.125 27.4895 2.251 29.4938 4.2553C31.4981 6.25959 32.6241 8.978 32.6241 11.8125C32.6253 12.1627 32.6076 12.5127 32.5712 12.861C32.5554 13.0094 32.5992 13.1579 32.6929 13.274C32.7866 13.3901 32.9226 13.4642 33.071 13.48C33.1445 13.4879 33.2188 13.4811 33.2896 13.4603C33.3605 13.4394 33.4265 13.4048 33.484 13.3583C33.6001 13.2646 33.6742 13.1286 33.69 12.9803C33.7307 12.5923 33.7504 12.2025 33.7491 11.8125C33.7491 8.67963 32.5046 5.67507 30.2893 3.4598C28.074 1.24453 25.0695 0 21.9366 0C18.8037 0 15.7992 1.24453 13.5839 3.4598C11.3686 5.67507 10.1241 8.67963 10.1241 11.8125C10.1175 13.6602 10.551 15.4829 11.3886 17.1298C11.4356 17.2226 11.5075 17.3005 11.5962 17.3548C11.6849 17.4092 11.7869 17.4378 11.8909 17.4375H11.8903Z" fill="#002F57"/>
<path d="M30.5454 14.514C30.6904 14.5493 30.8435 14.5256 30.971 14.4481C31.0986 14.3705 31.1901 14.2456 31.2255 14.1006C31.5486 12.7869 31.5893 11.4196 31.3449 10.089C31.1005 8.75836 30.5766 7.49474 29.8078 6.38157C29.039 5.2684 28.0427 4.33102 26.8848 3.63133C25.727 2.93164 24.4338 2.48558 23.0908 2.32259C21.7478 2.1596 20.3855 2.28341 19.0939 2.68582C17.8022 3.08824 16.6107 3.76011 15.5979 4.65707C14.5851 5.55402 13.7742 6.65564 13.2186 7.88916C12.6631 9.12269 12.3755 10.4601 12.375 11.8129C12.3728 13.7303 12.9474 15.604 14.0243 17.1904C14.0646 17.2539 14.1173 17.3087 14.1791 17.3514C14.241 17.3942 14.3108 17.4241 14.3845 17.4394C14.4581 17.4548 14.5341 17.4551 14.6079 17.4406C14.6817 17.426 14.7518 17.3968 14.8141 17.3547C14.8764 17.3125 14.9297 17.2583 14.9707 17.1952C15.0116 17.1322 15.0396 17.0615 15.0528 16.9875C15.066 16.9134 15.0642 16.8375 15.0475 16.7641C15.0309 16.6908 14.9997 16.6215 14.9558 16.5604C14.2132 15.4683 13.7374 14.2171 13.5665 12.9076C13.3956 11.598 13.5344 10.2667 13.9717 9.02055C14.409 7.77442 15.1327 6.6483 16.0844 5.73277C17.0362 4.81724 18.1896 4.13785 19.4518 3.74924C20.7139 3.36062 22.0497 3.27363 23.3516 3.49526C24.6535 3.71688 25.8852 4.24094 26.9477 5.02529C28.0102 5.80964 28.8738 6.83238 29.4691 8.01126C30.0643 9.19015 30.3746 10.4923 30.375 11.8129C30.3748 12.4939 30.2932 13.1724 30.132 13.834C30.1145 13.9058 30.1112 13.9803 30.1225 14.0534C30.1338 14.1264 30.1594 14.1965 30.1978 14.2597C30.2362 14.3228 30.2866 14.3778 30.3463 14.4215C30.406 14.4651 30.4736 14.4966 30.5454 14.514Z" fill="#002F57"/>
<path d="M21.9375 6.1875C22.0867 6.1875 22.2298 6.12824 22.3352 6.02275C22.4407 5.91726 22.5 5.77418 22.5 5.625V5.0625C22.5 4.91332 22.4407 4.77024 22.3352 4.66475C22.2298 4.55926 22.0867 4.5 21.9375 4.5C21.7883 4.5 21.6452 4.55926 21.5398 4.66475C21.4343 4.77024 21.375 4.91332 21.375 5.0625V5.625C21.375 5.77418 21.4343 5.91726 21.5398 6.02275C21.6452 6.12824 21.7883 6.1875 21.9375 6.1875ZM18.2812 5.47987C18.1521 5.55447 18.0578 5.67733 18.0192 5.82143C17.9806 5.96552 18.0008 6.11906 18.0754 6.24825L18.3566 6.73537C18.4317 6.86352 18.5545 6.95674 18.6981 6.99471C18.8417 7.03268 18.9945 7.0123 19.1231 6.93803C19.2518 6.86376 19.3458 6.74162 19.3847 6.59827C19.4237 6.45493 19.4043 6.302 19.3309 6.17287L19.0496 5.68575C18.975 5.55656 18.8522 5.46229 18.7081 5.42368C18.564 5.38507 18.4104 5.40529 18.2812 5.47987ZM16.8604 8.23162L16.3727 7.95037C16.3087 7.91286 16.2379 7.88837 16.1644 7.87832C16.0909 7.86827 16.0161 7.87286 15.9444 7.89182C15.8727 7.91078 15.8055 7.94374 15.7465 7.9888C15.6876 8.03386 15.6382 8.09013 15.6011 8.15438C15.564 8.21862 15.54 8.28957 15.5304 8.36313C15.5208 8.4367 15.5259 8.51142 15.5454 8.58301C15.5648 8.65461 15.5982 8.72164 15.6436 8.78027C15.6891 8.8389 15.7457 8.88796 15.8102 8.92462L16.2979 9.20587C16.3619 9.24339 16.4327 9.26788 16.5062 9.27793C16.5797 9.28798 16.6544 9.28339 16.7261 9.26443C16.7979 9.24547 16.8651 9.21251 16.924 9.16745C16.983 9.12239 17.0324 9.06612 17.0695 9.00187C17.1066 8.93763 17.1306 8.86668 17.1402 8.79312C17.1497 8.71955 17.1446 8.64483 17.1252 8.57324C17.1058 8.50164 17.0724 8.43461 17.0269 8.37598C16.9815 8.31735 16.9249 8.26829 16.8604 8.23162ZM16.3125 11.8125C16.3125 11.6633 16.2532 11.5202 16.1477 11.4148C16.0423 11.3093 15.8992 11.25 15.75 11.25H15.1875C15.0383 11.25 14.8952 11.3093 14.7898 11.4148C14.6843 11.5202 14.625 11.6633 14.625 11.8125C14.625 11.9617 14.6843 12.1048 14.7898 12.2102C14.8952 12.3157 15.0383 12.375 15.1875 12.375H15.75C15.8992 12.375 16.0423 12.3157 16.1477 12.2102C16.2532 12.1048 16.3125 11.9617 16.3125 11.8125ZM16.092 15.75C16.1908 15.7502 16.2878 15.7241 16.3732 15.6746L16.8604 15.3934C16.9249 15.3567 16.9815 15.3077 17.0269 15.249C17.0724 15.1904 17.1058 15.1234 17.1252 15.0518C17.1446 14.9802 17.1497 14.9054 17.1402 14.8319C17.1306 14.7583 17.1066 14.6874 17.0695 14.6231C17.0324 14.5589 16.983 14.5026 16.924 14.4576C16.8651 14.4125 16.7979 14.3795 16.7261 14.3606C16.6544 14.3416 16.5797 14.337 16.5062 14.3471C16.4327 14.3571 16.3619 14.3816 16.2979 14.4191L15.8102 14.7004C15.7029 14.7623 15.6191 14.8579 15.5717 14.9724C15.5243 15.0868 15.5161 15.2137 15.5482 15.3334C15.5803 15.453 15.651 15.5587 15.7494 15.634C15.8477 15.7093 15.9681 15.7501 16.092 15.75ZM24.8254 17.9392C24.8748 18.0248 24.9459 18.0959 25.0315 18.1453C25.1171 18.1947 25.2142 18.2206 25.3131 18.2205C25.4118 18.2204 25.5087 18.1943 25.5941 18.1449C25.6795 18.0955 25.7505 18.0245 25.7998 17.939C25.8491 17.8535 25.875 17.7565 25.875 17.6579C25.875 17.5592 25.849 17.4622 25.7996 17.3767L25.5184 16.8896C25.4433 16.7615 25.3205 16.6683 25.1769 16.6303C25.0333 16.5923 24.8805 16.6127 24.7519 16.687C24.6232 16.7612 24.5292 16.8834 24.4903 17.0267C24.4513 17.1701 24.4707 17.323 24.5441 17.4521L24.8254 17.9392ZM27.0146 15.3934L27.5023 15.6746C27.6314 15.748 27.7844 15.7674 27.9277 15.7285C28.0711 15.6896 28.1932 15.5955 28.2675 15.4669C28.3417 15.3383 28.3621 15.1855 28.3241 15.0419C28.2862 14.8983 28.193 14.7755 28.0648 14.7004L27.5771 14.4191C27.5131 14.3816 27.4423 14.3571 27.3688 14.3471C27.2953 14.337 27.2206 14.3416 27.1489 14.3606C27.0771 14.3795 27.0099 14.4125 26.951 14.4576C26.892 14.5026 26.8426 14.5589 26.8055 14.6231C26.7684 14.6874 26.7444 14.7583 26.7348 14.8319C26.7253 14.9054 26.7304 14.9802 26.7498 15.0518C26.7692 15.1234 26.8026 15.1904 26.8481 15.249C26.8935 15.3077 26.9501 15.3567 27.0146 15.3934ZM29.25 11.8125C29.25 11.6633 29.1907 11.5202 29.0852 11.4148C28.9798 11.3093 28.8367 11.25 28.6875 11.25H28.125C27.9758 11.25 27.8327 11.3093 27.7273 11.4148C27.6218 11.5202 27.5625 11.6633 27.5625 11.8125C27.5625 11.9617 27.6218 12.1048 27.7273 12.2102C27.8327 12.3157 27.9758 12.375 28.125 12.375H28.6875C28.8367 12.375 28.9798 12.3157 29.0852 12.2102C29.1907 12.1048 29.25 11.9617 29.25 11.8125ZM27.2964 9.28125C27.3952 9.28141 27.4922 9.2554 27.5777 9.20587L28.0648 8.92462C28.1293 8.88796 28.1859 8.8389 28.2314 8.78027C28.2768 8.72164 28.3102 8.65461 28.3296 8.58301C28.3491 8.51142 28.3542 8.4367 28.3446 8.36313C28.335 8.28957 28.311 8.21862 28.2739 8.15438C28.2368 8.09013 28.1874 8.03386 28.1285 7.9888C28.0695 7.94374 28.0023 7.91078 27.9306 7.89182C27.8589 7.87286 27.7841 7.86827 27.7106 7.87832C27.6371 7.88837 27.5663 7.91286 27.5023 7.95037L27.0146 8.23162C26.9074 8.29356 26.8235 8.38918 26.7762 8.50363C26.7288 8.61809 26.7205 8.74498 26.7526 8.86461C26.7848 8.98424 26.8555 9.08993 26.9538 9.16526C27.0521 9.2406 27.1726 9.28137 27.2964 9.28125ZM25.5938 5.47987C25.5298 5.44287 25.4592 5.41884 25.3859 5.40916C25.3127 5.39947 25.2382 5.40433 25.1669 5.42346C25.0955 5.44258 25.0286 5.47559 24.97 5.5206C24.9114 5.5656 24.8623 5.62173 24.8254 5.68575L24.5441 6.17287C24.4707 6.302 24.4513 6.45493 24.4903 6.59827C24.5292 6.74162 24.6232 6.86376 24.7519 6.93803C24.8805 7.0123 25.0333 7.03268 25.1769 6.99471C25.3205 6.95674 25.4433 6.86352 25.5184 6.73537L25.7996 6.24825C25.8742 6.11906 25.8944 5.96552 25.8558 5.82143C25.8172 5.67733 25.7229 5.55447 25.5938 5.47987ZM21.375 11.8125C21.375 11.9617 21.4343 12.1048 21.5398 12.2102C21.6452 12.3157 21.7883 12.375 21.9375 12.375H24.75C24.8992 12.375 25.0423 12.3157 25.1477 12.2102C25.2532 12.1048 25.3125 11.9617 25.3125 11.8125C25.3125 11.6633 25.2532 11.5202 25.1477 11.4148C25.0423 11.3093 24.8992 11.25 24.75 11.25H22.5V7.875C22.5 7.72582 22.4407 7.58274 22.3352 7.47725C22.2298 7.37176 22.0867 7.3125 21.9375 7.3125C21.7883 7.3125 21.6452 7.37176 21.5398 7.47725C21.4343 7.58274 21.375 7.72582 21.375 7.875V11.8125Z" fill="#002F57"/>
</g>
<defs>
<clipPath id="clip0_1654_3536">
<rect width="36" height="36" fill="white"/>
</clipPath>
</defs>
</svg>
