<svg width="36" height="36" viewBox="0 0 36 36" fill="none" xmlns="http://www.w3.org/2000/svg">
<path d="M34.875 22.4763L31.8734 13.3286C31.6308 12.5896 30.8328 12.1861 30.0938 12.4286L27.2173 13.3722C26.8601 13.4896 26.5697 13.7393 26.3996 14.0761C26.2505 14.3714 26.209 14.7011 26.28 15.0182L25.7928 15.2369C24.9891 15.5969 24.215 15.675 23.3557 15.4816L23.2988 15.4689C25.6353 12.513 25.4785 9.34543 25.2471 4.68934L25.2436 4.62113C25.2389 4.52481 25.2013 4.43302 25.1371 4.3611C25.0728 4.28918 24.9858 4.24148 24.8907 4.22598C23.5097 3.99957 22.5964 3.22332 22.0978 1.85293C22.0682 1.77155 22.0143 1.70125 21.9433 1.65157C21.8724 1.60188 21.7879 1.57522 21.7013 1.5752H14.2974C14.1202 1.5752 13.9613 1.68629 13.9008 1.85293C13.4023 3.22332 12.4889 3.99957 11.108 4.22598C11.0129 4.2416 10.926 4.28933 10.8617 4.36123C10.7975 4.43313 10.7599 4.52485 10.755 4.62113L10.7515 4.68934C10.497 9.8116 10.3374 13.0509 13.3699 16.2382L12.3961 16.2227L11.0264 15.284C11.0764 15.0513 11.0679 14.808 10.9955 14.5732C10.8844 14.2125 10.6411 13.9164 10.3092 13.7407L7.63456 12.3225C6.94761 11.9582 6.09261 12.2212 5.72839 12.9082L1.21854 21.4139C0.854325 22.1008 1.11729 22.9558 1.80425 23.32L4.47893 24.7382C4.68425 24.8472 4.90854 24.9021 5.13565 24.9021C5.27558 24.9021 5.4155 24.881 5.55331 24.8388C5.84581 24.7488 6.09401 24.5709 6.2719 24.3304C6.65932 24.4795 6.93847 24.7193 7.14659 25.0835L7.74425 26.1297C7.62261 26.3793 7.56565 26.6571 7.58042 26.9425C7.60362 27.3862 7.79698 27.794 8.12534 28.09C8.42928 28.3652 8.82489 28.5171 9.23487 28.5161C9.25948 28.5161 9.28409 28.5154 9.3087 28.514C9.27003 29.0104 9.45214 29.5195 9.8494 29.8781C10.1665 30.1643 10.5645 30.3049 10.961 30.3049C11.0335 30.3049 11.1066 30.3 11.1783 30.2901C11.1846 30.7359 11.3674 31.1782 11.7239 31.4995C12.0279 31.7746 12.4235 31.9266 12.8335 31.9256C12.9229 31.9257 13.0123 31.9187 13.1007 31.9045C13.1189 32.3348 13.3017 32.7581 13.6463 33.0682C13.9634 33.3543 14.3614 33.495 14.7579 33.495C15.139 33.495 15.5187 33.3642 15.8246 33.1082L16.8785 34.0012C17.2006 34.2751 17.6097 34.4252 18.0324 34.4245C18.083 34.4245 18.1336 34.4224 18.1842 34.4182C18.6624 34.3788 19.0955 34.1566 19.4035 33.7924C19.6264 33.5294 19.7649 33.2151 19.8099 32.8804C20.1059 33.0829 20.4532 33.1905 20.8139 33.1905C20.8646 33.1905 20.9152 33.1884 20.9658 33.1842C21.4439 33.1448 21.8771 32.9226 22.185 32.5584C22.4353 32.2624 22.5725 31.9073 22.6013 31.5452C22.8284 31.638 23.0689 31.6851 23.3086 31.6851C23.8416 31.6851 24.3717 31.4594 24.7423 31.0221C25.011 30.7058 25.1664 30.3089 25.1839 29.8943C25.3892 29.9702 25.6078 30.0096 25.8321 30.0096C25.8849 30.0096 25.9376 30.0075 25.991 30.0032C26.4917 29.9618 26.9459 29.729 27.2693 29.3472C27.5928 28.9661 27.7474 28.4803 27.706 27.9789C27.6645 27.4811 27.4346 27.0297 27.057 26.707C27.8353 26.276 28.4351 25.7296 28.8106 25.1032C28.9653 24.8444 29.1713 24.6806 29.4539 24.5871C29.5889 24.8114 29.7837 24.9942 30.0242 25.1158C30.2253 25.2178 30.4425 25.2691 30.6612 25.2691C30.8082 25.2691 30.9565 25.2459 31.0999 25.1988L33.9764 24.2552C34.714 24.0133 35.1176 23.2153 34.875 22.4763ZM11.5812 4.99238C12.9931 4.66684 14.0014 3.8034 14.5849 2.41895H21.4151C21.9987 3.8027 23.007 4.66684 24.4189 4.99238C24.6481 9.63371 24.7437 12.513 22.3763 15.2615L21.5079 15.0661C23.7045 12.7106 23.8634 10.244 23.6679 5.87199C23.6644 5.79138 23.6379 5.71347 23.5914 5.64753C23.5449 5.58158 23.4804 5.53039 23.4057 5.50004C22.3967 5.08941 21.5979 4.3891 21.0312 3.41879C20.994 3.35525 20.9408 3.30255 20.8769 3.26592C20.813 3.22928 20.7406 3.20999 20.667 3.20996H15.3317C15.1819 3.20996 15.0427 3.28941 14.9674 3.41879C14.4007 4.3884 13.602 5.08871 12.593 5.50004C12.5182 5.53039 12.4538 5.58158 12.4073 5.64753C12.3608 5.71347 12.3342 5.79138 12.3307 5.87199C12.2091 8.60082 12.2288 10.3748 12.6795 11.9357C13.1274 13.4854 14.0154 14.77 15.5342 16.0511L15.2789 16.2684L14.5934 16.2571C11.2339 13.1746 11.3225 10.2229 11.5812 4.99238ZM16.1867 15.4971C13.216 13.0488 12.9635 10.9071 13.1632 6.17293C14.1582 5.71309 14.966 5.00223 15.5693 4.05441H20.4307C21.034 5.00223 21.8412 5.71379 22.8368 6.17293C23.0168 10.45 22.8185 12.6424 20.5397 14.8488L19.2129 14.5507C18.2349 14.3306 17.2765 14.5675 16.5143 15.2179L16.1867 15.4971ZM5.30511 24.033C5.15956 24.0773 5.00628 24.0632 4.87409 23.9929L2.1994 22.5747C1.92378 22.4285 1.81831 22.0847 1.96456 21.809L6.473 13.3033C6.57425 13.1114 6.77112 13.0024 6.97433 13.0024C7.06362 13.0024 7.15432 13.0235 7.2387 13.0685L9.91409 14.486C10.047 14.5563 10.1447 14.6751 10.189 14.8207C10.2333 14.9662 10.2192 15.1195 10.1489 15.2517L5.63979 23.7581C5.56948 23.891 5.45065 23.9887 5.30511 24.033ZM8.68925 27.4643C8.35456 27.1626 8.32784 26.6451 8.62948 26.3104L9.2419 25.6312C9.54354 25.2965 10.061 25.2698 10.3957 25.5714C10.5567 25.717 10.6517 25.9174 10.6629 26.1361C10.6742 26.3547 10.6003 26.5643 10.4555 26.7253L9.84307 27.4045C9.54143 27.7399 9.02393 27.7659 8.68925 27.4643ZM10.4133 29.253C10.0786 28.9514 10.0519 28.4339 10.3535 28.0992L10.4696 27.9705L11.082 27.2913L11.0827 27.2906L11.9539 26.3245C12.0987 26.1635 12.2998 26.0686 12.5185 26.0573C12.5332 26.0566 12.548 26.0559 12.5621 26.0559C12.7653 26.0559 12.9572 26.129 13.1077 26.2647C13.2687 26.4103 13.3636 26.6107 13.3749 26.8293C13.3861 27.048 13.3123 27.2575 13.1674 27.4186L11.5671 29.1932C11.2655 29.5279 10.748 29.5546 10.4133 29.253ZM12.8771 31.0811C12.6584 31.0931 12.4489 31.0186 12.2878 30.8737C11.9532 30.5721 11.9264 30.0546 12.2281 29.7199L13.4712 28.3411C13.6167 28.18 13.8171 28.0851 14.0358 28.0739C14.2538 28.0619 14.464 28.1364 14.625 28.2813C14.786 28.4268 14.881 28.6272 14.8922 28.8459C14.9035 29.0646 14.8296 29.2741 14.6848 29.4351L13.8066 30.4089L13.8059 30.4096L13.4417 30.8132C13.2961 30.975 13.0957 31.0699 12.8771 31.0811ZM14.2095 32.4424C14.0485 32.2968 13.9535 32.0964 13.9423 31.8778C13.931 31.6591 14.0049 31.4496 14.1497 31.2886L14.4331 30.975C14.7347 30.641 15.2522 30.6143 15.5862 30.9159C15.7472 31.0614 15.8421 31.2618 15.8534 31.4805C15.8646 31.6992 15.7908 31.9087 15.646 32.0697L15.3633 32.3826C15.0617 32.7173 14.5442 32.744 14.2095 32.4424ZM26.6239 28.803C26.4467 29.0125 26.1964 29.1405 25.92 29.163C25.6437 29.1862 25.3765 29.1004 25.167 28.9232L24.5222 28.3769L21.6148 25.9132C21.5294 25.8409 21.4187 25.8054 21.3072 25.8146C21.1956 25.8239 21.0923 25.877 21.02 25.9624C20.9476 26.0478 20.9122 26.1585 20.9214 26.27C20.9307 26.3815 20.9838 26.4848 21.0692 26.5572L23.9766 29.021L23.9773 29.0217C24.4111 29.3901 24.4653 30.0433 24.0968 30.4779C23.7284 30.9131 23.0745 30.9672 22.6399 30.5981L19.7325 28.1343C19.6471 28.062 19.5365 28.0266 19.4249 28.0358C19.3134 28.045 19.2101 28.0982 19.1377 28.1836C19.0654 28.269 19.0299 28.3796 19.0392 28.4912C19.0484 28.6027 19.1015 28.706 19.1869 28.7784L21.4362 30.6846L21.4369 30.6853C21.8278 31.0235 21.8735 31.6197 21.5396 32.0142C21.3771 32.2061 21.1479 32.3236 20.8941 32.3447C20.641 32.3657 20.3956 32.2877 20.2036 32.1246L17.9614 30.2247C17.8759 30.1524 17.7653 30.117 17.6537 30.1262C17.5422 30.1354 17.4389 30.1886 17.3665 30.2739C17.2942 30.3594 17.2588 30.47 17.268 30.5816C17.2772 30.6931 17.3304 30.7964 17.4157 30.8688L18.6469 31.9122C18.8389 32.0746 18.9556 32.3039 18.9767 32.557C18.9978 32.8101 18.9197 33.0555 18.7566 33.2475C18.5942 33.4394 18.3649 33.5568 18.1111 33.5779C17.858 33.599 17.6126 33.521 17.4207 33.3579L16.3913 32.4846C16.8736 31.8075 16.7829 30.8589 16.1508 30.2887C15.9365 30.0954 15.6751 29.9618 15.3928 29.9013C15.634 29.5884 15.7549 29.2031 15.7346 28.803C15.7114 28.3593 15.518 27.9515 15.1896 27.6555C14.9084 27.4017 14.5547 27.2547 14.1807 27.2329C14.2123 27.0881 14.2257 26.9383 14.2179 26.7857C14.1947 26.3421 14.0014 25.9343 13.673 25.6382C13.3446 25.3422 12.9192 25.1911 12.4756 25.2143C12.0783 25.2346 11.7113 25.3921 11.4258 25.66C11.3362 25.3855 11.1762 25.1391 10.9617 24.9457C10.2818 24.3325 9.22925 24.3867 8.61612 25.0666L8.30534 25.4118L7.87995 24.6658C7.5987 24.1729 7.19651 23.8129 6.68534 23.59L10.6742 16.0652L12.0235 16.9905C12.0918 17.0375 12.1726 17.0632 12.2555 17.0643L14.3093 17.0974L13.4782 17.8054C13.0107 18.2041 12.7632 18.7392 12.7632 19.3537V23.5043C12.7632 23.6175 12.8089 23.7264 12.8897 23.8059C13.486 24.3895 14.1877 24.5168 14.8662 24.1645C16.0629 23.5429 16.9467 21.4652 16.7583 20.3086C16.7337 20.1588 16.9482 19.9781 17.1696 19.8902C17.4045 19.7974 17.64 19.8361 17.8327 19.9992L26.5036 27.3461C26.7132 27.5233 26.8411 27.7736 26.8636 28.05C26.8861 28.3263 26.801 28.5935 26.6239 28.803ZM28.0857 24.6707C27.7489 25.2318 27.1407 25.7402 26.3595 26.1185L18.3783 19.3558C17.9494 18.9923 17.3813 18.8995 16.8589 19.1062C16.321 19.3193 15.8239 19.8164 15.9258 20.4443C16.0608 21.2711 15.3211 22.9776 14.4774 23.4157C14.2805 23.5183 13.9838 23.6104 13.6069 23.3151V19.3544C13.6069 18.9895 13.7475 18.685 14.0253 18.4481L17.0614 15.8606C17.6253 15.3796 18.3052 15.2116 19.028 15.374L23.1722 16.3057C24.2037 16.5377 25.1747 16.44 26.1394 16.0075L26.5395 15.8282L29.1551 23.8003C28.6974 23.9592 28.3374 24.2503 28.0857 24.6707ZM33.7121 23.4543L30.8356 24.3979C30.6928 24.445 30.5396 24.4331 30.4039 24.3642C30.2682 24.2953 30.1676 24.1793 30.1205 24.0365L27.1189 14.8889C27.0717 14.7461 27.0837 14.5929 27.1526 14.4571C27.2215 14.3214 27.3375 14.2209 27.4803 14.1738L30.3567 13.2302C30.4151 13.2112 30.4749 13.2021 30.5332 13.2021C30.7716 13.2021 30.9938 13.3539 31.0718 13.5923L34.0735 22.74C34.1712 23.036 34.0088 23.3566 33.7121 23.4543ZM16.7449 11.6622L14.8303 9.74832C14.6658 9.58379 14.6658 9.3166 14.8303 9.15137C14.9949 8.98684 15.2621 8.98684 15.4273 9.15137L17.0431 10.7671L20.5735 7.23676C20.738 7.07223 21.0052 7.07223 21.1704 7.23676C21.3349 7.40129 21.3349 7.66848 21.1704 7.83371L17.3419 11.6622C17.2596 11.7445 17.1514 11.786 17.0438 11.786C16.9362 11.786 16.8272 11.7445 16.7449 11.6622Z" fill="#002F57"/>
</svg>
