<svg width="36" height="36" viewBox="0 0 36 36" fill="none" xmlns="http://www.w3.org/2000/svg">
<path d="M21.9375 14.0625H14.0625C13.1344 14.0625 12.375 14.8219 12.375 15.75V20.25C12.375 21.1781 13.1344 21.9375 14.0625 21.9375H21.9375C22.8656 21.9375 23.625 21.1781 23.625 20.25V15.75C23.625 14.8219 22.8656 14.0625 21.9375 14.0625ZM22.5 20.25C22.5 20.5594 22.2469 20.8125 21.9375 20.8125H14.0625C13.7531 20.8125 13.5 20.5594 13.5 20.25V15.75C13.5 15.4406 13.7531 15.1875 14.0625 15.1875H21.9375C22.2469 15.1875 22.5 15.4406 22.5 15.75V20.25Z" fill="#002F57"/>
<path d="M15.1875 17.4375H18.5625C18.8719 17.4375 19.125 17.1844 19.125 16.875C19.125 16.5656 18.8719 16.3125 18.5625 16.3125H15.1875C14.8781 16.3125 14.625 16.5656 14.625 16.875C14.625 17.1844 14.8781 17.4375 15.1875 17.4375Z" fill="#002F57"/>
<path d="M20.8125 18.5625H15.1875C14.8781 18.5625 14.625 18.8156 14.625 19.125C14.625 19.4344 14.8781 19.6875 15.1875 19.6875H20.8125C21.1219 19.6875 21.375 19.4344 21.375 19.125C21.375 18.8156 21.1219 18.5625 20.8125 18.5625Z" fill="#002F57"/>
<path d="M21.9377 25.8754H14.0627C13.1346 25.8754 12.3752 26.6348 12.3752 27.5629V29.2504H7.59398C4.64648 29.2504 2.25023 26.8542 2.25023 23.9067C2.25023 20.9592 4.64648 18.5629 7.59398 18.5629H9.33211L8.60648 19.2886C8.38711 19.5079 8.38711 19.8623 8.60648 20.0817C8.71898 20.1942 8.85961 20.2448 9.00586 20.2448C9.15211 20.2448 9.29273 20.1886 9.40523 20.0817L11.0927 18.3942C11.3121 18.1748 11.3121 17.8204 11.0927 17.6011L9.40523 15.9136C9.18586 15.6942 8.83148 15.6942 8.61211 15.9136C8.39273 16.1329 8.39273 16.4873 8.61211 16.7067L9.33773 17.4323H7.59961C4.03336 17.4323 1.13086 20.3348 1.13086 23.9011C1.13086 27.4673 4.03336 30.3698 7.59961 30.3698H12.3809V32.0573C12.3809 32.9854 13.1402 33.7448 14.0684 33.7448H21.9434C22.8715 33.7448 23.6309 32.9854 23.6309 32.0573V27.5573C23.6309 26.6292 22.8715 25.8698 21.9434 25.8698L21.9377 25.8754ZM22.5002 32.0629C22.5002 32.3723 22.2471 32.6254 21.9377 32.6254H14.0627C13.7534 32.6254 13.5002 32.3723 13.5002 32.0629V27.5629C13.5002 27.2536 13.7534 27.0004 14.0627 27.0004H21.9377C22.2471 27.0004 22.5002 27.2536 22.5002 27.5629V32.0629Z" fill="#002F57"/>
<path d="M15.1875 29.25H18.5625C18.8719 29.25 19.125 28.9969 19.125 28.6875C19.125 28.3781 18.8719 28.125 18.5625 28.125H15.1875C14.8781 28.125 14.625 28.3781 14.625 28.6875C14.625 28.9969 14.8781 29.25 15.1875 29.25Z" fill="#002F57"/>
<path d="M20.8125 30.375H15.1875C14.8781 30.375 14.625 30.6281 14.625 30.9375C14.625 31.2469 14.8781 31.5 15.1875 31.5H20.8125C21.1219 31.5 21.375 31.2469 21.375 30.9375C21.375 30.6281 21.1219 30.375 20.8125 30.375Z" fill="#002F57"/>
<path d="M15.1875 5.625H18.5625C18.8719 5.625 19.125 5.37187 19.125 5.0625C19.125 4.75312 18.8719 4.5 18.5625 4.5H15.1875C14.8781 4.5 14.625 4.75312 14.625 5.0625C14.625 5.37187 14.8781 5.625 15.1875 5.625Z" fill="#002F57"/>
<path d="M20.8125 6.75H15.1875C14.8781 6.75 14.625 7.00312 14.625 7.3125C14.625 7.62187 14.8781 7.875 15.1875 7.875H20.8125C21.1219 7.875 21.375 7.62187 21.375 7.3125C21.375 7.00312 21.1219 6.75 20.8125 6.75Z" fill="#002F57"/>
<path d="M29.8125 24.75C27.0225 24.75 24.75 27.0225 24.75 29.8125C24.75 32.6025 27.0225 34.875 29.8125 34.875C32.6025 34.875 34.875 32.6025 34.875 29.8125C34.875 27.0225 32.6025 24.75 29.8125 24.75ZM29.8125 33.75C27.6413 33.75 25.875 31.9837 25.875 29.8125C25.875 27.6413 27.6413 25.875 29.8125 25.875C31.9837 25.875 33.75 27.6413 33.75 29.8125C33.75 31.9837 31.9837 33.75 29.8125 33.75Z" fill="#002F57"/>
<path d="M31.3816 28.0073L28.9684 30.4204L28.2428 29.6948C28.0234 29.4754 27.6691 29.4754 27.4497 29.6948C27.2303 29.9142 27.2303 30.2686 27.4497 30.4879L28.5747 31.6129C28.6872 31.7254 28.8278 31.7761 28.9741 31.7761C29.1203 31.7761 29.2609 31.7198 29.3734 31.6129L32.1859 28.8004C32.4053 28.5811 32.4053 28.2267 32.1859 28.0073C31.9666 27.7879 31.6122 27.7879 31.3928 28.0073H31.3816Z" fill="#002F57"/>
<path d="M1.16459 7.38047C1.08584 7.67297 1.12521 7.97672 1.27709 8.23547L1.83959 9.20859C1.99146 9.46734 2.23334 9.65297 2.52021 9.73172C2.81271 9.81047 3.11646 9.77109 3.37521 9.61922L3.70709 9.42797C3.88146 9.54609 4.06146 9.65297 4.25271 9.74297V10.1255C4.25271 10.7442 4.75896 11.2505 5.37771 11.2505H6.50271C7.12146 11.2505 7.62771 10.7442 7.62771 10.1255V9.74297C7.81896 9.65297 7.99896 9.54609 8.17334 9.42797L8.50521 9.61922C9.03959 9.92859 9.73146 9.74297 10.0408 9.20859L10.6033 8.23547C10.7552 7.97672 10.7946 7.67297 10.7158 7.38047C10.6371 7.08797 10.4515 6.84609 10.1927 6.69984L9.86084 6.50859C9.87209 6.40172 9.87209 6.29484 9.87209 6.19359C9.87209 6.09234 9.87209 5.98547 9.86084 5.87859L10.1927 5.68734C10.4515 5.53547 10.6371 5.29359 10.7158 5.00672C10.7946 4.71422 10.7552 4.41609 10.6033 4.15172L10.0408 3.17859C9.73146 2.63859 9.03959 2.45859 8.50521 2.76797L8.17334 2.95922C7.99896 2.84109 7.81896 2.73422 7.62771 2.64422V2.26172C7.62771 1.64297 7.12146 1.13672 6.50271 1.13672H5.37771C4.75896 1.13672 4.25271 1.64297 4.25271 2.26172V2.64422C4.06146 2.73422 3.87584 2.84109 3.70709 2.95922L3.37521 2.76797C3.11646 2.61609 2.81271 2.57672 2.52021 2.65547C2.22771 2.73422 1.98584 2.91984 1.83959 3.17859L1.27709 4.15172C1.12521 4.41047 1.08584 4.71422 1.16459 5.00672C1.24334 5.29922 1.42896 5.54109 1.68771 5.68734L2.01959 5.87859C2.00834 5.98547 2.00834 6.09234 2.00834 6.19359C2.00834 6.29484 2.00834 6.40172 2.01959 6.50859L1.68771 6.69984C1.42896 6.85172 1.24334 7.09359 1.16459 7.38047ZM3.17834 6.70547C3.14459 6.52547 3.12771 6.35672 3.12771 6.19359C3.12771 6.03047 3.14459 5.86172 3.17834 5.68172C3.22334 5.44547 3.11084 5.20922 2.90834 5.09109L2.25021 4.71422L2.81271 3.74109L3.47084 4.11797C3.67896 4.23609 3.93771 4.21359 4.11771 4.05609C4.38209 3.83109 4.68021 3.66234 5.00646 3.54422C5.23146 3.46547 5.38334 3.25172 5.38334 3.01547V2.25609H6.50834V3.01547C6.50834 3.25172 6.66021 3.46547 6.88521 3.54422C7.21146 3.66234 7.50959 3.83109 7.77396 4.05609C7.95396 4.20797 8.21271 4.23609 8.42084 4.11797L9.07896 3.74109L9.64146 4.71422L8.98334 5.09109C8.77521 5.20922 8.66834 5.44547 8.71334 5.68172C8.74709 5.86172 8.76396 6.03047 8.76396 6.19359C8.76396 6.35672 8.74709 6.52547 8.71334 6.70547C8.66834 6.94172 8.78084 7.17797 8.98334 7.29609L9.64146 7.67297L9.07896 8.64609L8.42084 8.26922C8.21271 8.15109 7.95396 8.17359 7.77396 8.33109C7.50959 8.55609 7.21146 8.72484 6.88521 8.84297C6.66021 8.92172 6.50834 9.13547 6.50834 9.37172V10.1311H5.38334V9.37172C5.38334 9.13547 5.23146 8.92172 5.00646 8.84297C4.68021 8.72484 4.38209 8.55609 4.11771 8.33109C4.01084 8.24109 3.88146 8.19609 3.75209 8.19609C3.65646 8.19609 3.56084 8.21859 3.47084 8.26922L2.81271 8.64609L2.25021 7.67297L2.90834 7.29609C3.11646 7.17797 3.22334 6.94172 3.17834 6.70547Z" fill="#002F57"/>
<path d="M5.94141 7.875C6.86953 7.875 7.62891 7.11562 7.62891 6.1875C7.62891 5.25938 6.86953 4.5 5.94141 4.5C5.01328 4.5 4.25391 5.25938 4.25391 6.1875C4.25391 7.11562 5.01328 7.875 5.94141 7.875ZM5.94141 5.625C6.25078 5.625 6.50391 5.87812 6.50391 6.1875C6.50391 6.49688 6.25078 6.75 5.94141 6.75C5.63203 6.75 5.37891 6.49688 5.37891 6.1875C5.37891 5.87812 5.63203 5.625 5.94141 5.625Z" fill="#002F57"/>
<path d="M28.4062 6.75023C31.3537 6.75023 33.75 9.14648 33.75 12.094C33.75 15.0415 31.3537 17.4377 28.4062 17.4377H26.6681L27.3937 16.7121C27.6131 16.4927 27.6131 16.1384 27.3937 15.919C27.1744 15.6996 26.82 15.6996 26.6006 15.919L24.9131 17.6065C24.6937 17.8259 24.6937 18.1802 24.9131 18.3996L26.6006 20.0871C26.7131 20.1996 26.8537 20.2502 27 20.2502C27.1462 20.2502 27.2869 20.194 27.3994 20.0871C27.6187 19.8677 27.6187 19.5134 27.3994 19.294L26.6737 18.5684H28.4119C31.9781 18.5684 34.8806 15.6659 34.8806 12.0996C34.8806 8.53336 31.9781 5.63086 28.4119 5.63086H23.6306V3.94336C23.6306 3.01523 22.8712 2.25586 21.9431 2.25586H14.0681C13.14 2.25586 12.3806 3.01523 12.3806 3.94336V8.44336C12.3806 9.37148 13.14 10.1309 14.0681 10.1309H21.9431C22.8712 10.1309 23.6306 9.37148 23.6306 8.44336V6.75586H28.4119L28.4062 6.75023ZM22.5 8.43773C22.5 8.74711 22.2469 9.00023 21.9375 9.00023H14.0625C13.7531 9.00023 13.5 8.74711 13.5 8.43773V3.93773C13.5 3.62836 13.7531 3.37523 14.0625 3.37523H21.9375C22.2469 3.37523 22.5 3.62836 22.5 3.93773V8.43773Z" fill="#002F57"/>
</svg>
